<svg width="24" height="24" viewBox="0 0 24 24" fill="none" xmlns="http://www.w3.org/2000/svg">
<path d="M10 7C10 9 9.66667 10 7 10C4.33333 10 4 9 4 7C4 5 4.375 4 7 4C9.625 4 10 5 10 7Z" stroke="#353E50" stroke-width="1.5" stroke-linecap="round" stroke-linejoin="round"/>
<path d="M10 17C10 19 9.66667 20 7 20C4.33333 20 4 19 4 17C4 15 4.375 14 7 14C9.625 14 10 15 10 17Z" stroke="#353E50" stroke-width="1.5" stroke-linecap="round" stroke-linejoin="round"/>
<path d="M20 7C20 9 19.6667 10 17 10C14.3333 10 14 9 14 7C14 5 14.375 4 17 4C19.625 4 20 5 20 7Z" stroke="#353E50" stroke-width="1.5" stroke-linecap="round" stroke-linejoin="round"/>
<path d="M20 17C20 19 19.6667 20 17 20C14.3333 20 14 19 14 17C14 15 14.375 14 17 14C19.625 14 20 15 20 17Z" stroke="#353E50" stroke-width="1.5" stroke-linecap="round" stroke-linejoin="round"/>
</svg>
