<svg width="24" height="24" viewBox="0 0 24 24" fill="none" xmlns="http://www.w3.org/2000/svg">
<path d="M12 3C7.02944 3 3 7.02944 3 12C3 16.9706 7.02944 21 12 21C16.9706 21 21 16.9706 21 12C21 7.02944 16.9706 3 12 3Z" stroke="#353E50" stroke-width="1.5" stroke-linecap="round" stroke-linejoin="round"/>
<path d="M13.9 11.7998H9.4M13.9 11.7998C14.7 11.7998 15.4 11.0998 15.4 10.2998C15.4 9.4998 14.7 8.7998 13.9 8.7998H9.4V11.7998M13.9 11.7998C14.7 11.7998 15.4 12.4998 15.4 13.2998C15.4 14.0998 14.7 14.7998 13.9 14.7998H9.4V11.7998M11.4 8.7998H8.4M10.4 6.7998V8.7998M13.4 6.7998V8.7998M10.4 14.7998V16.7998M13.4 14.7998V16.7998M11.4 14.7998H8.4" stroke="#353E50" stroke-width="1.5" stroke-linecap="round" stroke-linejoin="round"/>
</svg>
