<svg width="24" height="24" viewBox="0 0 24 24" fill="none" xmlns="http://www.w3.org/2000/svg">
<path d="M12 3C7.02944 3 3 7.02944 3 12C3 16.9706 7.02944 21 12 21C16.9706 21 21 16.9706 21 12C21 7.02944 16.9706 3 12 3Z" stroke="#353E50" stroke-width="1.7" stroke-linecap="round" stroke-linejoin="round"/>
<path d="M13.9 11.8H9.39999M13.9 11.8C14.7 11.8 15.4 11.1 15.4 10.3C15.4 9.49999 14.7 8.79999 13.9 8.79999H9.39999V11.8M13.9 11.8C14.7 11.8 15.4 12.5 15.4 13.3C15.4 14.1 14.7 14.8 13.9 14.8H9.39999V11.8M11.4 8.79999H8.39999M10.4 6.79999V8.79999M13.4 6.79999V8.79999M10.4 14.8V16.8M13.4 14.8V16.8M11.4 14.8H8.39999" stroke="#353E50" stroke-width="1.7" stroke-linecap="round" stroke-linejoin="round"/>
</svg>
