<svg width="24" height="24" viewBox="0 0 24 24" fill="none" xmlns="http://www.w3.org/2000/svg">
<path d="M15 15C16.6569 15 18 13.6569 18 12C18 10.3431 16.6569 9 15 9C13.3431 9 12 10.3431 12 12C12 13.6569 13.3431 15 15 15Z" stroke="#353E50" stroke-width="1.5" stroke-linecap="round" stroke-linejoin="round"/>
<path d="M9 9H12V15H9C8.20435 15 7.44129 14.6839 6.87868 14.1213C6.31607 13.5587 6 12.7956 6 12C6 11.2044 6.31607 10.4413 6.87868 9.87868C7.44129 9.31607 8.20435 9 9 9V9Z" stroke="#353E50" stroke-width="1.5" stroke-linecap="round" stroke-linejoin="round"/>
<path d="M9 3H12V9H9C8.20435 9 7.44129 8.68393 6.87868 8.12132C6.31607 7.55871 6 6.79565 6 6V6C6 5.20435 6.31607 4.44129 6.87868 3.87868C7.44129 3.31607 8.20435 3 9 3V3Z" stroke="#353E50" stroke-width="1.5" stroke-linecap="round" stroke-linejoin="round"/>
<path d="M15 9H12V3L15 3C15.7956 3 16.5587 3.31607 17.1213 3.87868C17.6839 4.44129 18 5.20435 18 6V6C18 6.79565 17.6839 7.55871 17.1213 8.12132C16.5587 8.68393 15.7956 9 15 9V9Z" stroke="#353E50" stroke-width="1.5" stroke-linecap="round" stroke-linejoin="round"/>
<path d="M9 15H12V18C12 18.7956 11.6839 19.5587 11.1213 20.1213C10.5587 20.6839 9.79565 21 9 21C8.20435 21 7.44129 20.6839 6.87868 20.1213C6.31607 19.5587 6 18.7956 6 18C6 17.2044 6.31607 16.4413 6.87868 15.8787C7.44129 15.3161 8.20435 15 9 15V15Z" stroke="#353E50" stroke-width="1.5" stroke-linecap="round" stroke-linejoin="round"/>
</svg>
