<svg width="24" height="24" viewBox="0 0 24 24" fill="none" xmlns="http://www.w3.org/2000/svg">
<path d="M13.4249 3.90114L15.0287 7.00507C15.2292 7.5057 15.7304 7.80608 16.2316 7.90621L19.6398 8.40684C20.9429 8.6071 21.4441 10.2091 20.5419 11.1103L18.0359 13.4132C17.635 13.8137 17.4345 14.3143 17.5347 14.815L18.1362 18.1191C18.3366 19.4208 17.0335 20.4221 15.8306 19.8213L12.7232 18.2193C12.222 18.019 11.7208 18.019 11.2196 18.2193L8.11215 19.8213C6.90927 20.4221 5.60615 19.4208 5.80663 18.1191L6.40807 14.815C6.50831 14.3143 6.30783 13.7136 5.90687 13.4132L3.50111 11.0101C2.49871 10.109 3.10015 8.50697 4.40327 8.30672L7.81143 7.80608C8.31263 7.70596 8.81383 7.40558 9.01432 7.00507L10.5179 3.90114C11.2196 2.69962 12.8234 2.69962 13.4249 3.90114Z" stroke="#353E50" stroke-width="1.5" stroke-linecap="round" stroke-linejoin="round"/>
</svg>
