<svg width="24" height="24" viewBox="0 0 24 24" fill="none" xmlns="http://www.w3.org/2000/svg">
<path d="M13.4249 3.90114L15.0288 7.00507C15.2293 7.5057 15.7305 7.80608 16.2317 7.90621L19.6398 8.40684C20.9429 8.6071 21.4441 10.2091 20.542 11.1103L18.036 13.4132C17.635 13.8137 17.4345 14.3143 17.5348 14.815L18.1362 18.1191C18.3367 19.4208 17.0336 20.4221 15.8307 19.8213L12.7233 18.2193C12.2221 18.019 11.7209 18.019 11.2197 18.2193L8.11222 19.8213C6.90933 20.4221 5.60621 19.4208 5.80669 18.1191L6.40814 14.815C6.50838 14.3143 6.30789 13.7136 5.90693 13.4132L3.50117 11.0101C2.49877 10.109 3.10021 8.50697 4.40333 8.30672L7.8115 7.80608C8.3127 7.70596 8.8139 7.40558 9.01438 7.00507L10.518 3.90114C11.2197 2.69962 12.8235 2.69962 13.4249 3.90114Z" stroke="#353E50" stroke-width="1.7" stroke-linecap="round" stroke-linejoin="round"/>
</svg>
