<?xml version="1.0" encoding="utf-8"?>
<!-- Generator: Adobe Illustrator 26.0.2, SVG Export Plug-In . SVG Version: 6.00 Build 0)  -->
<svg version="1.1" id="Layer_1" xmlns="http://www.w3.org/2000/svg" xmlns:xlink="http://www.w3.org/1999/xlink" x="0px" y="0px"
	 viewBox="0 0 156 36" style="enable-background:new 0 0 156 36;" xml:space="preserve">
<style type="text/css">
	.st0{fill:#121B2B;}
	.st1{fill-rule:evenodd;clip-rule:evenodd;fill:url(#SVGID_1_);}
	.st2{fill-rule:evenodd;clip-rule:evenodd;fill:url(#SVGID_00000118358349214211890720000015990769567441685932_);}
	.st3{fill-rule:evenodd;clip-rule:evenodd;fill:url(#SVGID_00000075136670200560272600000008239433039099569807_);}
	.st4{fill-rule:evenodd;clip-rule:evenodd;fill:url(#SVGID_00000147916266418538864230000018434291468692285591_);}
	.st5{fill-rule:evenodd;clip-rule:evenodd;fill:#A9AFBC;}
</style>
<path class="st0" d="M0,18c0,11.9,3.9,18,18,18c14.1,0,18-6.4,18-18S32.1,0,18,0C3.9,0,0,6.1,0,18z"/>
<linearGradient id="SVGID_1_" gradientUnits="userSpaceOnUse" x1="7.46" y1="7.46" x2="25.0325" y2="25.0325">
	<stop  offset="0.5052" style="stop-color:#FFFFFF"/>
	<stop  offset="0.9742" style="stop-color:#1C2028"/>
</linearGradient>
<path class="st1" d="M28.8,20.9c0.1,0.4-0.2,0.8-0.6,0.9c0,0-0.1,0-0.1,0c-0.4,0-0.7-0.3-0.8-0.7v0l0-0.1c0,0,0-0.1,0-0.2
	c0-0.2-0.1-0.4-0.1-0.7c-0.1-0.6-0.3-1.3-0.5-2.1c-0.2-0.8-0.5-1.6-0.8-2.3c-0.3-0.7-0.6-1.3-0.9-1.6c0,0,0,0,0,0
	c-0.1-0.1-0.4-0.3-1-0.6c-0.6-0.3-1.3-0.5-2.1-0.8c-1.7-0.6-3.8-1.2-5.9-1.9c-2.1-0.6-4.1-1.1-5.6-1.5C9.8,9.3,9.4,9.2,9.1,9.1
	c0.1,0.4,0.2,0.8,0.3,1.2c0.4,1.5,0.9,3.5,1.5,5.6c0.6,2.1,1.2,4.2,1.9,5.9c0.3,0.8,0.6,1.6,0.8,2.1c0.3,0.6,0.5,0.9,0.6,1
	c0,0,0,0,0,0c0,0,0,0,0,0c0.3,0.3,0.8,0.6,1.6,0.9c0.7,0.3,1.5,0.6,2.3,0.8c0.8,0.2,1.5,0.4,2.1,0.5c0.3,0.1,0.5,0.1,0.7,0.1
	c0.1,0,0.1,0,0.2,0l0.1,0h0c0.4,0.1,0.7,0.5,0.6,0.9c-0.1,0.4-0.5,0.7-0.9,0.6v0h0l-0.1,0c0,0-0.1,0-0.2,0c-0.2,0-0.4-0.1-0.7-0.1
	c-0.6-0.1-1.3-0.3-2.2-0.5c-0.8-0.2-1.7-0.5-2.5-0.8c-0.8-0.3-1.6-0.7-2.1-1.2c-0.3-0.3-0.6-0.9-0.9-1.4c-0.3-0.6-0.6-1.4-0.9-2.3
	c-0.6-1.7-1.3-3.9-1.9-6c-0.6-2.1-1.2-4.1-1.6-5.7C7.7,9.9,7.5,9.3,7.4,8.9c0-0.2-0.1-0.4-0.1-0.5l0-0.1l0,0c-0.1-0.3,0-0.5,0.2-0.7
	s0.5-0.3,0.7-0.2l0,0l0.1,0c0.1,0,0.3,0.1,0.5,0.1c0.4,0.1,1.1,0.3,1.8,0.5c1.5,0.4,3.6,0.9,5.7,1.6c2.1,0.6,4.2,1.3,6,1.9
	c0.9,0.3,1.6,0.6,2.3,0.9c0.6,0.3,1.1,0.6,1.4,0.9c0.5,0.5,0.9,1.3,1.2,2.1c0.3,0.8,0.6,1.7,0.8,2.5c0.2,0.8,0.4,1.6,0.5,2.2
	c0.1,0.3,0.1,0.5,0.1,0.7C28.7,20.7,28.7,20.8,28.8,20.9L28.8,20.9L28.8,20.9C28.8,20.9,28.8,20.9,28.8,20.9z"/>
<linearGradient id="SVGID_00000127003439553644490050000005880483472658529177_" gradientUnits="userSpaceOnUse" x1="9" y1="29" x2="19.5" y2="18.5" gradientTransform="matrix(1 0 0 -1 0 38)">
	<stop  offset="0.3661" style="stop-color:#FFFFFF"/>
	<stop  offset="0.4178" style="stop-color:#F6F6F6;stop-opacity:0.9151"/>
	<stop  offset="0.5023" style="stop-color:#DDDDDD;stop-opacity:0.7761"/>
	<stop  offset="0.6093" style="stop-color:#B5B5B5;stop-opacity:0.6002"/>
	<stop  offset="0.7345" style="stop-color:#7E7E7E;stop-opacity:0.3943"/>
	<stop  offset="0.8733" style="stop-color:#383838;stop-opacity:0.166"/>
	<stop  offset="0.9742" style="stop-color:#000000;stop-opacity:0"/>
</linearGradient>
<path style="fill-rule:evenodd;clip-rule:evenodd;fill:url(#SVGID_00000127003439553644490050000005880483472658529177_);" d="
	M8.5,8.5c0.3-0.3,0.8-0.3,1.1,0l9,9c0.3,0.3,0.3,0.8,0,1.1c-0.3,0.3-0.8,0.3-1.1,0l-9-9C8.2,9.2,8.2,8.8,8.5,8.5z"/>
<linearGradient id="SVGID_00000087374522366502535200000004427746990954525626_" gradientUnits="userSpaceOnUse" x1="31.0414" y1="6.9524" x2="24.2028" y2="13.7916" gradientTransform="matrix(1 0 0 -1 0 38)">
	<stop  offset="3.868970e-02" style="stop-color:#1C2028"/>
	<stop  offset="1" style="stop-color:#F0F3F7"/>
</linearGradient>
<path style="fill-rule:evenodd;clip-rule:evenodd;fill:url(#SVGID_00000087374522366502535200000004427746990954525626_);" d="
	M31.1,21.9c-0.7-0.7-2-0.8-2.8,0.1l-6.3,6.3c-0.4,0.5-0.6,1-0.6,1.4c0,0.5,0.1,1,0.5,1.4c0.3,0.3,0.3,0.8,0,1.1
	c-0.3,0.3-0.8,0.3-1.1,0c-0.7-0.7-1-1.6-1-2.5c0-0.9,0.4-1.7,0.9-2.4c0,0,0,0,0-0.1l6.3-6.3c1.4-1.4,3.6-1.5,5-0.1
	c0.3,0.3,0.3,0.8,0,1.1C31.8,22.2,31.4,22.2,31.1,21.9z"/>
<linearGradient id="SVGID_00000057141660600055848310000013959212112636661662_" gradientUnits="userSpaceOnUse" x1="32.1178" y1="6.0831" x2="22.8736" y2="14.8407" gradientTransform="matrix(1 0 0 -1 0 38)">
	<stop  offset="0.1562" style="stop-color:#1C2028;stop-opacity:0"/>
	<stop  offset="0.5156" style="stop-color:#E8ECF0"/>
</linearGradient>
<path style="fill-rule:evenodd;clip-rule:evenodd;fill:url(#SVGID_00000057141660600055848310000013959212112636661662_);" d="
	M33.4,22.8L22.8,33.4c0,0.1-0.1,0.1-0.1,0.2c0,0,0,0,0,0l1.6,0.3c0.4,0.1,0.7,0.5,0.6,0.9c-0.1,0.4-0.5,0.7-0.9,0.6l-1.9-0.3
	c-0.1,0-0.2,0-0.3-0.1c-0.9-0.6-1-1.8-0.4-2.6c0,0,0,0,0.1-0.1l10.7-10.7c0.4-0.4,0.9-0.5,1.4-0.4c0.5,0.1,1,0.3,1.2,0.8
	c0,0.1,0.1,0.2,0.1,0.2l0.3,1.4c0.1,0.4-0.2,0.8-0.6,0.9c-0.4,0.1-0.8-0.2-0.9-0.6l-0.3-1.2c0,0,0,0-0.1,0
	C33.5,22.8,33.5,22.8,33.4,22.8C33.4,22.8,33.4,22.8,33.4,22.8z"/>
<path class="st5" d="M16.7,18.5c0-1,0.8-1.8,1.8-1.8c1,0,1.8,0.8,1.8,1.8c0,1-0.8,1.8-1.8,1.8C17.5,20.2,16.7,19.4,16.7,18.5z"/>
<g>
	<path d="M59.6,22c-0.4,0.7-0.9,1.2-1.6,1.6c-0.7,0.4-1.6,0.6-2.4,0.6c-0.6,0-1.3-0.1-1.8-0.3c-0.6-0.2-1.1-0.6-1.6-1
		c-0.4-0.4-0.8-0.9-1-1.5c-0.2-0.6-0.3-1.2-0.3-1.8c0-0.6,0.1-1.2,0.3-1.8c0.2-0.6,0.6-1.1,1-1.5c0.4-0.4,1-0.8,1.5-1
		c0.6-0.2,1.2-0.3,1.8-0.3c0.8,0,1.7,0.2,2.4,0.6c0.7,0.4,1.2,1,1.6,1.7l0.1,0.2l2.4-1.4l-0.1-0.2c-0.6-1.1-1.4-2.1-2.5-2.7
		c-1.2-0.7-2.5-1-3.8-1c-1,0-2,0.1-2.9,0.5c-0.9,0.4-1.8,0.9-2.5,1.6c-0.7,0.7-1.3,1.5-1.6,2.4c-0.4,0.9-0.5,1.9-0.5,2.8
		c0,1,0.2,2,0.5,2.9c0.4,0.9,0.9,1.7,1.6,2.4c0.7,0.7,1.6,1.2,2.5,1.6c0.9,0.4,1.9,0.5,2.9,0.5c1.3,0,2.6-0.3,3.8-1
		c1.1-0.6,2-1.5,2.7-2.7l0.1-0.2l-2.4-1.4L59.6,22z"/>
	<path d="M76.1,14.3c-0.7-0.7-1.5-1.2-2.5-1.6c-0.9-0.4-1.9-0.5-2.9-0.5c-1,0-2,0.2-2.9,0.5c-0.9,0.4-1.8,0.9-2.5,1.6
		c-0.7,0.7-1.3,1.5-1.6,2.4c-0.4,0.9-0.6,1.9-0.5,2.9c0,1,0.2,2,0.5,2.9c0.4,0.9,0.9,1.7,1.6,2.4c0.7,0.7,1.5,1.2,2.5,1.6
		c0.9,0.4,1.9,0.5,2.9,0.5c1,0,2-0.2,2.9-0.5c0.9-0.4,1.8-0.9,2.5-1.6c0.7-0.7,1.3-1.5,1.7-2.4c0.4-0.9,0.6-1.9,0.6-2.9
		c0-1-0.2-2-0.6-2.9C77.4,15.8,76.8,15,76.1,14.3z M75.2,21.4c-0.2,0.6-0.6,1.1-1,1.5c-0.9,0.9-2.1,1.3-3.4,1.3
		c-1.2,0-2.4-0.5-3.4-1.3c-0.4-0.4-0.8-1-1-1.5c-0.2-0.6-0.3-1.2-0.3-1.8c0-0.6,0.1-1.2,0.3-1.8c0.2-0.6,0.6-1.1,1-1.5
		c0.9-0.9,2.1-1.3,3.4-1.3c1.2,0,2.4,0.5,3.4,1.3c0.4,0.4,0.8,0.9,1,1.5c0.2,0.6,0.3,1.2,0.3,1.8C75.5,20.2,75.4,20.8,75.2,21.4z"/>
	<path d="M85.1,12.8c-0.7,0.3-1.3,0.9-1.8,1.5v-1.7h-2.8v14.1h2.8v-7.4c-0.1-0.6,0-1.1,0.2-1.7c0.2-0.5,0.5-1,1-1.4
		c0.8-0.6,1.9-1,2.9-0.9h0.2v-2.9h-0.2C86.6,12.3,85.8,12.4,85.1,12.8z"/>
	<path d="M98.8,12.7c-0.9-0.4-1.9-0.6-2.8-0.5c-1,0-2,0.1-2.9,0.5c-0.9,0.4-1.8,0.9-2.5,1.6c-0.7,0.7-1.2,1.5-1.6,2.4
		c-0.4,0.9-0.5,1.9-0.5,2.9c0,1,0.2,2,0.5,2.9c0.4,0.9,0.9,1.7,1.6,2.4c1.5,1.4,3.5,2.1,5.6,2.1c1.2,0.1,2.5-0.2,3.6-0.8
		c1.1-0.6,2-1.4,2.7-2.4l0.1-0.2l-2.4-1.3l-0.1,0.2c-0.4,0.6-1,1.1-1.7,1.5c-0.7,0.3-1.4,0.5-2.2,0.4c-1.2,0-2.3-0.3-3.2-1
		c-0.8-0.6-1.3-1.5-1.6-2.4H103v-0.2c0.1-0.4,0.1-0.7,0.1-1.1c0-1.9-0.7-3.8-2-5.2C100.4,13.7,99.6,13.1,98.8,12.7z M91.4,18.4
		c0.2-1,0.7-1.9,1.5-2.5c0.9-0.7,2-1,3.1-1c1,0,2,0.3,2.8,1c0.7,0.7,1.2,1.6,1.4,2.6L91.4,18.4z"/>
	<path d="M108.1,7.5c-0.2-0.2-0.4-0.3-0.6-0.4C107.3,7,107,7,106.8,7c-0.5,0-0.9,0.2-1.3,0.5c-0.3,0.3-0.5,0.8-0.5,1.3
		c0,0.2,0,0.5,0.1,0.7c0.1,0.2,0.2,0.4,0.4,0.6c0.4,0.3,0.8,0.5,1.3,0.5c0.5,0,0.9-0.2,1.3-0.5c0.2-0.2,0.3-0.4,0.4-0.6
		c0.1-0.2,0.1-0.5,0.1-0.7s0-0.5-0.1-0.7C108.4,7.9,108.3,7.7,108.1,7.5z"/>
	<rect x="105.4" y="12.3" width="2.8" height="14.3"/>
	<path d="M122.2,22c-0.4,0.7-0.9,1.3-1.6,1.6c-0.7,0.4-1.6,0.6-2.4,0.6c-0.6,0-1.2-0.1-1.8-0.3c-0.6-0.2-1.1-0.6-1.5-1
		c-0.4-0.4-0.8-0.9-1-1.5c-0.2-0.6-0.3-1.2-0.3-1.8c0-0.6,0.1-1.2,0.3-1.8c0.2-0.6,0.6-1.1,1-1.5c0.4-0.4,1-0.8,1.5-1
		c0.6-0.2,1.2-0.3,1.8-0.3c0.8,0,1.7,0.2,2.4,0.6c0.7,0.4,1.2,1,1.6,1.7l0.1,0.2l2.4-1.3l-0.1-0.2c-0.5-1.1-1.4-2.1-2.5-2.7
		c-1.2-0.7-2.5-1-3.8-1c-1,0-2,0.1-2.9,0.5c-0.9,0.4-1.8,0.9-2.5,1.6c-0.7,0.7-1.3,1.5-1.6,2.4c-0.4,0.9-0.5,1.9-0.5,2.8
		c0,1,0.2,2,0.5,2.9s0.9,1.7,1.6,2.4c0.7,0.7,1.5,1.2,2.5,1.6c0.9,0.4,1.9,0.5,2.9,0.5c1.3,0,2.7-0.3,3.8-1c1.1-0.6,2-1.6,2.7-2.7
		l0.1-0.2l-2.4-1.4L122.2,22z"/>
	<path d="M138.8,14.3c-0.7-0.7-1.5-1.3-2.5-1.6c-0.9-0.4-1.9-0.5-2.9-0.5c-1,0-2,0.1-2.9,0.5c-0.9,0.4-1.8,0.9-2.5,1.6
		c-0.7,0.7-1.3,1.5-1.6,2.4c-0.4,0.9-0.6,1.9-0.5,2.9c0,1,0.2,2,0.5,2.9c0.4,0.9,0.9,1.7,1.6,2.4c1.4,1.4,3.4,2.1,5.4,2.1
		s3.9-0.8,5.4-2.1c0.7-0.7,1.3-1.5,1.7-2.4c0.4-0.9,0.6-1.9,0.6-2.9c0-1-0.2-2-0.6-2.9C140.1,15.8,139.5,15,138.8,14.3z M137.8,21.4
		c-0.2,0.6-0.6,1.1-1,1.5c-0.4,0.4-1,0.8-1.6,1c-0.6,0.2-1.2,0.3-1.8,0.3c-0.6,0-1.2-0.1-1.8-0.3c-0.6-0.2-1.1-0.6-1.5-1
		c-0.4-0.4-0.8-0.9-1-1.5c-0.2-0.6-0.3-1.2-0.3-1.8c0-0.6,0.1-1.2,0.3-1.8c0.2-0.6,0.6-1.1,1-1.5c0.4-0.4,1-0.8,1.5-1
		c0.6-0.2,1.2-0.3,1.8-0.3c0.6,0,1.2,0.1,1.8,0.3c0.6,0.2,1.1,0.6,1.5,1c0.4,0.4,0.8,0.9,1,1.5c0.2,0.6,0.3,1.2,0.3,1.8
		C138.1,20.3,138,20.9,137.8,21.4z"/>
	<path d="M155.6,15.8c-0.3-0.7-0.7-1.4-1.2-2c-0.5-0.5-1.2-0.9-1.9-1.2c-0.7-0.3-1.5-0.4-2.2-0.4c-0.8,0-1.6,0.1-2.4,0.4
		c-0.7,0.3-1.4,0.8-1.9,1.5v-1.5h-2.8v14.1h2.8v-7.4c-0.1-1.2,0.3-2.3,1-3.2c0.4-0.4,0.8-0.6,1.3-0.8c0.5-0.2,1-0.3,1.5-0.2
		c0.4,0,0.9,0,1.3,0.2c0.4,0.1,0.8,0.4,1.1,0.7c0.3,0.3,0.5,0.7,0.7,1.1c0.1,0.4,0.2,0.9,0.2,1.3v8.5h2.8V18
		C156,17.3,155.9,16.5,155.6,15.8z"/>
</g>
</svg>
