<svg width="128" height="32" viewBox="0 0 128 32" fill="none" xmlns="http://www.w3.org/2000/svg">
<g clip-path="url(#clip0_849_55677)">
<path d="M1.90735e-06 16C1.90735e-06 26.5715 3.42857 32 16 32C28.5714 32 32 26.2857 32 16C32 5.7143 28.5714 1.52588e-05 16 1.52588e-05C3.42857 1.52588e-05 1.90735e-06 5.42859 1.90735e-06 16Z" fill="#121B2B"/>
<path fill-rule="evenodd" clip-rule="evenodd" d="M7.27554 6.4513L7.11111 7.11112L6.45129 7.27556C6.39357 7.04396 6.4615 6.79906 6.63027 6.63029C6.79904 6.46152 7.04394 6.39359 7.27554 6.4513ZM23.1486 11.6718C22.8678 11.378 22.3801 11.1134 21.8685 10.8772C21.3194 10.6238 20.6292 10.3542 19.8581 10.0796C18.3139 9.52959 16.3992 8.94308 14.5398 8.40705C12.6783 7.87039 10.8626 7.38158 9.51304 7.02709C8.83805 6.84979 8.27917 6.70596 7.88883 6.60642C7.69366 6.55664 7.5406 6.51793 7.4362 6.49163L7.31692 6.46165L7.27554 6.4513C7.27554 6.4513 7.27554 6.4513 7.11111 7.11112C6.45129 7.27556 6.45129 7.27556 6.45129 7.27556L6.46164 7.31694L6.49161 7.43622C6.51791 7.54061 6.55663 7.69367 6.6064 7.88885C6.70595 8.27918 6.84977 8.83806 7.02707 9.51306C7.38156 10.8626 7.87038 12.6783 8.40703 14.5398C8.94307 16.3992 9.52957 18.3139 10.0795 19.8581C10.3542 20.6292 10.6238 21.3194 10.8772 21.8685C11.1133 22.3802 11.378 22.8678 11.6717 23.1486C12.1276 23.6012 12.8137 23.9579 13.5073 24.2404C14.2219 24.5316 15.0218 24.7742 15.7611 24.9675C16.5027 25.1615 17.1968 25.3094 17.7046 25.4087C17.959 25.4584 18.1675 25.4961 18.3132 25.5215C18.386 25.5342 18.4432 25.5439 18.4825 25.5504L18.5279 25.5578L18.5401 25.5598L18.5445 25.5605C18.5445 25.5605 18.545 25.5606 18.6511 24.8889L18.5445 25.5605C18.9154 25.6191 19.2642 25.3659 19.3227 24.995C19.3813 24.624 19.1281 24.2759 18.7572 24.2172V24.2172L18.7547 24.2168L18.745 24.2153L18.7048 24.2087C18.6691 24.2028 18.6157 24.1938 18.5469 24.1818C18.4092 24.1577 18.2098 24.1217 17.9656 24.0739C17.4766 23.9783 16.8116 23.8366 16.1052 23.6518C15.3965 23.4664 14.6591 23.2412 14.0204 22.981C13.364 22.7135 12.8838 22.4374 12.6267 22.1803C12.6248 22.1783 12.6228 22.1763 12.6208 22.1744C12.6179 22.1715 12.6149 22.1687 12.612 22.1659C12.5302 22.089 12.3562 21.8276 12.112 21.2986C11.8831 20.8025 11.6291 20.1553 11.3607 19.4018C10.8246 17.8966 10.2471 16.013 9.71381 14.1631C9.18113 12.3153 8.69528 10.5108 8.34245 9.16755C8.23168 8.74582 8.13406 8.36975 8.05228 8.0523C8.36973 8.13408 8.74581 8.23169 9.16754 8.34247C10.5108 8.6953 12.3153 9.18115 14.1631 9.71383C16.013 10.2471 17.8966 10.8247 19.4017 11.3607C20.1553 11.6291 20.8025 11.8831 21.2986 12.1121C21.8276 12.3562 22.089 12.5302 22.1659 12.612C22.1671 12.6133 22.1683 12.6146 22.1696 12.6158C22.1731 12.6195 22.1767 12.6232 22.1803 12.6268C22.4374 12.8839 22.7135 13.364 22.9809 14.0204C23.2412 14.6592 23.4664 15.3965 23.6518 16.1052C23.8365 16.8117 23.9783 17.4766 24.0739 17.9656C24.1217 18.2098 24.1577 18.4092 24.1818 18.5469C24.1938 18.6157 24.2027 18.6691 24.2087 18.7049L24.2153 18.745L24.2168 18.7547L24.2172 18.7568C24.2757 19.1278 24.624 19.3813 24.9949 19.3228C25.3659 19.2642 25.6191 18.916 25.5606 18.545L24.8889 18.6511C25.5606 18.545 25.5606 18.545 25.5606 18.545L25.5598 18.5401L25.5578 18.5279L25.5504 18.4825C25.5439 18.4432 25.5342 18.386 25.5215 18.3132C25.4961 18.1675 25.4584 17.959 25.4087 17.7047C25.3093 17.1968 25.1615 16.5028 24.9675 15.7611C24.7742 15.0218 24.5316 14.222 24.2404 13.5073C23.9578 12.8137 23.6012 12.1276 23.1486 11.6718Z" fill="url(#paint0_linear_849_55677)"/>
<path fill-rule="evenodd" clip-rule="evenodd" d="M7.51916 7.51918C7.78472 7.25362 8.21527 7.25362 8.48083 7.51918L16.4808 15.5192C16.7464 15.7847 16.7464 16.2153 16.4808 16.4808C16.2153 16.7464 15.7847 16.7464 15.5192 16.4808L7.51916 8.48084C7.2536 8.21528 7.2536 7.78473 7.51916 7.51918Z" fill="url(#paint1_linear_849_55677)"/>
<path fill-rule="evenodd" clip-rule="evenodd" d="M27.6083 19.4826C26.9538 18.8288 25.8537 18.7981 25.0835 19.5675L19.4948 25.1499C19.1583 25.5616 18.9911 25.9983 18.9911 26.3903C18.9911 26.8432 19.1145 27.2508 19.4719 27.6078C19.7376 27.8732 19.7378 28.3037 19.4724 28.5694C19.207 28.8352 18.7764 28.8354 18.5107 28.57C17.8478 27.9078 17.6311 27.1264 17.6311 26.3903C17.6311 25.6005 17.9678 24.857 18.4691 24.2561C18.4823 24.2403 18.4962 24.2252 18.5107 24.2106L24.1223 18.6053C25.3926 17.3364 27.3535 17.3058 28.5694 18.5204C28.8352 18.7858 28.8354 19.2164 28.57 19.4821C28.3046 19.7478 27.874 19.748 27.6083 19.4826Z" fill="url(#paint2_linear_849_55677)"/>
<path fill-rule="evenodd" clip-rule="evenodd" d="M29.7229 20.2505L20.2828 29.6905C20.2401 29.7541 20.2311 29.8166 20.2373 29.8623C20.2391 29.8748 20.2417 29.8859 20.2452 29.8956L21.707 30.1285C22.0779 30.1875 22.3306 30.5361 22.2715 30.907C22.2124 31.2778 21.8639 31.5306 21.493 31.4715L19.8335 31.2071C19.7476 31.1935 19.6651 31.1634 19.5906 31.1187C18.7578 30.619 18.6725 29.5246 19.2372 28.8187C19.2528 28.7991 19.2696 28.7804 19.2873 28.7627L28.7627 19.2873C29.1169 18.9331 29.6033 18.8363 30.0098 18.8893C30.4182 18.9425 30.8612 19.1614 31.1187 19.5906C31.1577 19.6556 31.1856 19.7266 31.2011 19.8007L31.4655 21.0603C31.5426 21.4279 31.3072 21.7883 30.9397 21.8655C30.5721 21.9426 30.2116 21.7072 30.1345 21.3397L29.9075 20.2581C29.8895 20.2498 29.8654 20.242 29.8339 20.2379C29.7959 20.2329 29.7636 20.2365 29.7422 20.2427C29.7307 20.246 29.7249 20.2492 29.7229 20.2505Z" fill="url(#paint3_linear_849_55677)"/>
<path fill-rule="evenodd" clip-rule="evenodd" d="M14.84 16.4C14.84 15.5384 15.5384 14.84 16.4 14.84C17.2616 14.84 17.96 15.5384 17.96 16.4C17.96 17.2616 17.2616 17.96 16.4 17.96C15.5384 17.96 14.84 17.2616 14.84 16.4Z" fill="#A9AFBC"/>
</g>
<path d="M51.212 19.4946C50.9227 20.0343 50.49 20.4827 49.9619 20.7899C49.3767 21.1206 48.7144 21.289 48.043 21.2776C47.542 21.2964 47.0426 21.2117 46.5755 21.0288C46.1085 20.8458 45.6838 20.5686 45.3278 20.2142C44.9821 19.8693 44.7093 19.4578 44.5259 19.0044C44.3426 18.551 44.2524 18.065 44.2609 17.5757C44.2553 17.0843 44.3488 16.5969 44.5359 16.1429C44.723 15.6888 44.9997 15.2775 45.3495 14.9338C45.6992 14.5901 46.1146 14.3211 46.5707 14.1431C47.0268 13.965 47.5141 13.8816 48.0032 13.8978C48.6704 13.8878 49.3279 14.0591 49.9062 14.3935C50.4395 14.7057 50.8711 15.1668 51.1483 15.7208L51.2199 15.8807L53.1468 14.7613L53.0751 14.6254C52.6352 13.7187 51.9331 12.9663 51.0607 12.4666C50.1367 11.9306 49.0861 11.6544 48.0191 11.6671C47.223 11.6438 46.4306 11.7835 45.69 12.0777C44.9495 12.3718 44.2763 12.8143 43.7115 13.3781C43.1534 13.9214 42.7132 14.5748 42.4186 15.2972C42.124 16.0196 41.9813 16.7953 41.9996 17.5757C41.9822 18.3607 42.1251 19.141 42.4195 19.8685C42.7139 20.5959 43.1536 21.2551 43.7115 21.8053C44.2783 22.3602 44.9501 22.7954 45.6873 23.0851C46.4244 23.3749 47.2119 23.5134 48.0032 23.4924C49.0614 23.4958 50.102 23.22 51.0209 22.6928C51.9079 22.1898 52.6425 21.4548 53.1468 20.566L53.2264 20.4221L51.2916 19.3187L51.212 19.4946Z" fill="black"/>
<path d="M60.1377 11.6671C59.3483 11.6497 58.5636 11.7923 57.8303 12.0863C57.0971 12.3802 56.4303 12.8196 55.8699 13.3781C55.3056 13.9184 54.8592 14.5704 54.5591 15.293C54.2589 16.0156 54.1115 16.7929 54.1262 17.5757C54.1109 18.3598 54.258 19.1385 54.5581 19.8624C54.8583 20.5864 55.305 21.2398 55.8699 21.7813C56.4303 22.3398 57.0971 22.7792 57.8303 23.0731C58.5636 23.3671 59.3483 23.5097 60.1377 23.4924C60.927 23.5092 61.7116 23.3665 62.4448 23.0725C63.178 22.7785 63.8448 22.3394 64.4055 21.7813C64.9717 21.24 65.4203 20.587 65.7231 19.8632C66.026 19.1395 66.1764 18.3607 66.1651 17.5757C66.1753 16.7921 66.0243 16.0148 65.7215 15.2925C65.4187 14.5702 64.9707 13.9185 64.4055 13.3781C63.8448 12.82 63.178 12.3809 62.4448 12.0869C61.7116 11.793 60.927 11.6502 60.1377 11.6671ZM62.821 20.2382C62.0962 20.9212 61.1396 21.3014 60.1456 21.3014C59.1517 21.3014 58.1951 20.9212 57.4703 20.2382C57.119 19.8921 56.8423 19.4771 56.6574 19.0191C56.4725 18.5611 56.3833 18.0698 56.3954 17.5757C56.3835 17.0828 56.4727 16.5928 56.6577 16.1361C56.8426 15.6794 57.1192 15.2658 57.4703 14.9212C58.1951 14.2382 59.1517 13.858 60.1456 13.858C61.1396 13.858 62.0962 14.2382 62.821 14.9212C63.1735 15.2652 63.4516 15.6784 63.6379 16.1351C63.8242 16.5919 63.9148 17.0823 63.9038 17.5757C63.9144 18.0703 63.8238 18.5618 63.6375 19.0198C63.4512 19.4778 63.1733 19.8925 62.821 20.2382Z" fill="black"/>
<path d="M70.0666 13.3221V11.9469H67.8054V23.2045H70.0666V17.2479C70.0242 16.7899 70.0885 16.3283 70.2543 15.8995C70.4201 15.4707 70.683 15.0865 71.0221 14.7773C71.6865 14.2615 72.5176 14.0108 73.3551 14.0737H73.5302V11.755H73.363C72.7257 11.7091 72.0874 11.8292 71.5099 12.1038C70.9323 12.3783 70.4352 12.798 70.0666 13.3221Z" fill="black"/>
<path d="M80.1708 11.6671C79.3749 11.6377 78.5814 11.7722 77.8392 12.0624C77.0971 12.3525 76.4219 12.7921 75.8552 13.3541C75.3047 13.9062 74.8725 14.5655 74.5849 15.2915C74.2974 16.0174 74.1607 16.7948 74.1831 17.5757C74.1646 18.363 74.3053 19.146 74.5968 19.8771C74.8883 20.6083 75.3246 21.2724 75.8791 21.8293C77.0774 22.9502 78.6694 23.5482 80.3061 23.4924C81.2903 23.5437 82.2708 23.3361 83.1506 22.8901C84.0303 22.4442 84.779 21.7754 85.3224 20.9498L85.4259 20.7979L83.491 19.7185L83.4035 19.8544C83.0774 20.3602 82.6209 20.7678 82.0825 21.0339C81.5441 21.3 80.944 21.4146 80.3459 21.3656C79.4264 21.3936 78.524 21.1122 77.7821 20.566C77.1523 20.0779 76.7106 19.3856 76.532 18.6071H85.7921V18.4632C85.8388 18.1724 85.8627 17.8783 85.8638 17.5837C85.9037 16.0357 85.3311 14.535 84.2714 13.4101C83.7563 12.8362 83.1221 12.3828 82.4137 12.0816C81.7052 11.7805 80.9396 11.639 80.1708 11.6671ZM76.5241 16.6242C76.6716 15.8313 77.0914 15.1155 77.7104 14.6014C78.4115 14.0529 79.2826 13.7698 80.1708 13.8018C80.9908 13.7877 81.7882 14.0717 82.4161 14.6014C83.0126 15.1357 83.4112 15.8572 83.5468 16.6482L76.5241 16.6242Z" fill="black"/>
<path d="M88.8178 7.50141C88.4369 7.50768 88.0736 7.6635 87.8057 7.9355C87.5378 8.2075 87.3866 8.57404 87.3846 8.95659C87.383 9.14569 87.4195 9.33317 87.492 9.5077C87.5646 9.68223 87.6716 9.84018 87.8066 9.97201C88.0885 10.2446 88.4663 10.3941 88.8576 10.3878C89.2413 10.3912 89.6107 10.2417 89.8848 9.97201C90.0203 9.83941 90.128 9.68089 90.2016 9.50581C90.2752 9.33072 90.3131 9.14262 90.3131 8.95259C90.3131 8.76256 90.2752 8.57446 90.2016 8.39937C90.128 8.22429 90.0203 8.06577 89.8848 7.93317C89.7481 7.78866 89.5821 7.67533 89.398 7.60084C89.2139 7.52635 89.0161 7.49244 88.8178 7.50141Z" fill="black"/>
<path d="M89.9325 11.755H87.6712V23.2125H89.9325V11.755Z" fill="black"/>
<path d="M101.072 19.4946C100.775 20.0485 100.328 20.5061 99.7819 20.8139C99.1967 21.1446 98.5344 21.313 97.863 21.3016C97.3669 21.3117 96.874 21.2206 96.4141 21.0337C95.9543 20.8468 95.537 20.568 95.1876 20.2142C94.8419 19.8693 94.5691 19.4578 94.3857 19.0044C94.2024 18.551 94.1122 18.065 94.1207 17.5757C94.115 17.0843 94.2086 16.5969 94.3957 16.1429C94.5828 15.6888 94.8595 15.2775 95.2092 14.9338C95.559 14.5901 95.9744 14.3211 96.4305 14.143C96.8866 13.965 97.3739 13.8816 97.863 13.8978C98.5302 13.8878 99.1877 14.0591 99.7659 14.3935C100.299 14.7057 100.731 15.1668 101.008 15.7208L101.08 15.8807L102.991 14.8013L102.919 14.6654C102.49 13.7461 101.793 12.9794 100.92 12.4666C99.9965 11.9306 98.9459 11.6544 97.8789 11.6671C97.0855 11.646 96.2961 11.7868 95.5584 12.0809C94.8207 12.375 94.1502 12.8163 93.5872 13.3781C93.0291 13.9214 92.5889 14.5748 92.2943 15.2972C91.9997 16.0196 91.857 16.7953 91.8753 17.5757C91.8579 18.3607 92.0008 19.141 92.2952 19.8685C92.5896 20.5959 93.0293 21.2551 93.5872 21.8053C94.1521 22.3582 94.8214 22.7923 95.5556 23.082C96.2898 23.3717 97.0743 23.5112 97.863 23.4924C98.9348 23.504 99.9904 23.2279 100.92 22.6928C101.81 22.1854 102.544 21.4447 103.046 20.55L103.126 20.4061L101.191 19.3027L101.072 19.4946Z" fill="black"/>
<path d="M109.997 11.6671C109.203 11.6454 108.412 11.7858 107.673 12.0799C106.934 12.374 106.262 12.8157 105.698 13.3781C105.135 13.9188 104.689 14.5711 104.391 15.2937C104.092 16.0163 103.946 16.7934 103.962 17.5757C103.945 18.3592 104.091 19.1377 104.39 19.8617C104.689 20.5857 105.134 21.2394 105.698 21.7813C106.849 22.8803 108.377 23.4931 109.966 23.4931C111.554 23.4931 113.082 22.8803 114.233 21.7813C114.811 21.2456 115.27 20.5948 115.583 19.8707C115.895 19.1466 116.054 18.3649 116.049 17.5757C116.061 16.7918 115.911 16.0139 115.608 15.2914C115.305 14.5688 114.856 13.9173 114.289 13.3781C113.726 12.817 113.055 12.3762 112.317 12.0822C111.58 11.7881 110.791 11.6469 109.997 11.6671ZM112.681 20.2382C112.326 20.5856 111.906 20.8586 111.446 21.0412C110.985 21.2238 110.493 21.3123 109.997 21.3016C109.506 21.3114 109.018 21.2223 108.561 21.0397C108.104 20.8571 107.688 20.5845 107.338 20.2382C106.984 19.8936 106.705 19.4791 106.519 19.0209C106.332 18.5626 106.243 18.0705 106.255 17.5757C106.243 17.0821 106.333 16.5912 106.519 16.1343C106.706 15.6774 106.984 15.2643 107.338 14.9212C107.691 14.5806 108.108 14.3145 108.564 14.1387C109.021 13.9629 109.509 13.881 109.997 13.8978C110.493 13.8853 110.986 13.973 111.447 14.1556C111.908 14.3383 112.327 14.6123 112.681 14.9612C113.033 15.3051 113.311 15.7184 113.498 16.1751C113.684 16.6318 113.775 17.1222 113.764 17.6157C113.769 18.1036 113.675 18.5875 113.489 19.0382C113.303 19.4889 113.028 19.8971 112.681 20.2382Z" fill="black"/>
<path d="M126.766 12.9303C126.341 12.5058 125.833 12.1744 125.274 11.957C124.714 11.7395 124.116 11.6408 123.517 11.6671C122.868 11.6306 122.219 11.7476 121.623 12.0086C121.027 12.2697 120.501 12.6675 120.086 13.1702V11.9469H117.824V23.2045H120.086V17.2479C120.026 16.3239 120.319 15.4117 120.906 14.6973C121.199 14.4066 121.55 14.1804 121.935 14.0332C122.32 13.8859 122.732 13.8207 123.143 13.8418C123.491 13.8219 123.839 13.8734 124.166 13.993C124.493 14.1125 124.793 14.2978 125.046 14.5374C125.283 14.7979 125.465 15.1032 125.583 15.4355C125.701 15.7677 125.751 16.1203 125.731 16.4723V23.2365H127.992V16.3364C128.023 15.7154 127.931 15.0944 127.72 14.5096C127.51 13.9248 127.185 13.388 126.766 12.9303Z" fill="black"/>
<defs>
<linearGradient id="paint0_linear_849_55677" x1="7.95767" y1="7.95768" x2="23.1066" y2="23.1067" gradientUnits="userSpaceOnUse">
<stop offset="0.453125" stop-color="white"/>
<stop offset="1" stop-opacity="0.99"/>
</linearGradient>
<linearGradient id="paint1_linear_849_55677" x1="7.99998" y1="8" x2="17.3333" y2="17.3333" gradientUnits="userSpaceOnUse">
<stop offset="0.315476" stop-color="white"/>
<stop offset="0.974207" stop-color="#121B2B" stop-opacity="0"/>
</linearGradient>
<linearGradient id="paint2_linear_849_55677" x1="27.8714" y1="27.3188" x2="21.7928" y2="21.2395" gradientUnits="userSpaceOnUse">
<stop offset="0.0386897" stop-color="#1C2028"/>
<stop offset="1" stop-color="#F0F3F7"/>
</linearGradient>
<linearGradient id="paint3_linear_849_55677" x1="29.935" y1="26.9077" x2="21.7179" y2="19.1231" gradientUnits="userSpaceOnUse">
<stop offset="0.109375" stop-color="#1C2028" stop-opacity="0"/>
<stop offset="0.555968" stop-color="#E8ECF0"/>
</linearGradient>
<clipPath id="clip0_849_55677">
<rect width="32" height="32" fill="white"/>
</clipPath>
</defs>
</svg>
