<svg width="160" height="40" viewBox="0 0 160 40" fill="none" xmlns="http://www.w3.org/2000/svg">
<path d="M1.43051e-06 20C1.43051e-06 33.2143 4.28572 40 20 40C35.7143 40 40 32.8571 40 20C40 7.14286 35.7143 7.62939e-06 20 7.62939e-06C4.28572 7.62939e-06 1.43051e-06 6.78572 1.43051e-06 20Z" fill="#121B2B"/>
<path fill-rule="evenodd" clip-rule="evenodd" d="M9.09444 8.06412L8.8889 8.8889L8.06412 9.09444C7.99198 8.80495 8.07689 8.49882 8.28786 8.28786C8.49882 8.07689 8.80495 7.99198 9.09444 8.06412ZM28.9357 14.5897C28.5847 14.2225 27.9752 13.8917 27.3357 13.5965C26.6492 13.2797 25.7865 12.9427 24.8226 12.5994C22.8924 11.912 20.499 11.1789 18.1748 10.5088C15.8478 9.83798 13.5783 9.22697 11.8913 8.78386C11.0476 8.56223 10.349 8.38245 9.86106 8.25802C9.61709 8.1958 9.42576 8.1474 9.29527 8.11453L9.14617 8.07706L9.09444 8.06412C9.09444 8.06412 9.09444 8.06412 8.8889 8.8889C8.06412 9.09444 8.06412 9.09444 8.06412 9.09444L8.07706 9.14617L8.11453 9.29527C8.1474 9.42576 8.1958 9.61709 8.25802 9.86106C8.38245 10.349 8.56223 11.0476 8.78386 11.8913C9.22697 13.5783 9.83798 15.8478 10.5088 18.1748C11.1789 20.499 11.912 22.8924 12.5994 24.8226C12.9427 25.7865 13.2797 26.6492 13.5965 27.3357C13.8917 27.9752 14.2225 28.5847 14.5897 28.9357C15.1595 29.5015 16.0171 29.9473 16.8841 30.3006C17.7774 30.6645 18.7773 30.9677 19.7014 31.2094C20.6284 31.4519 21.496 31.6367 22.1308 31.7608C22.4487 31.823 22.7094 31.8702 22.8915 31.9019C22.9825 31.9178 23.054 31.9298 23.1032 31.938L23.1599 31.9473L23.1751 31.9497L23.1806 31.9506C23.1806 31.9506 23.1813 31.9507 23.3138 31.1111L23.1806 31.9506C23.6443 32.0238 24.0802 31.7074 24.1534 31.2437C24.2267 30.78 23.9102 30.3448 23.4465 30.2715L23.4433 30.271L23.4313 30.2691L23.3811 30.2609C23.3364 30.2535 23.2697 30.2422 23.1836 30.2272C23.0115 30.1972 22.7622 30.1521 22.4571 30.0924C21.8457 29.9729 21.0146 29.7957 20.1315 29.5647C19.2456 29.333 18.3239 29.0515 17.5255 28.7262C16.7051 28.3919 16.1048 28.0467 15.7835 27.7253C15.781 27.7229 15.7785 27.7204 15.776 27.718C15.7724 27.7144 15.7687 27.7109 15.765 27.7074C15.6628 27.6112 15.4453 27.2845 15.1401 26.6233C14.8538 26.0031 14.5364 25.1941 14.2009 24.2522C13.5308 22.3708 12.8089 20.0162 12.1423 17.7038C11.4764 15.3942 10.8691 13.1385 10.4281 11.4594C10.2896 10.9323 10.1676 10.4622 10.0654 10.0654C10.4622 10.1676 10.9323 10.2896 11.4594 10.4281C13.1385 10.8691 15.3942 11.4764 17.7038 12.1423C20.0162 12.8089 22.3708 13.5308 24.2522 14.2009C25.1941 14.5364 26.0031 14.8538 26.6233 15.1401C27.2845 15.4453 27.6112 15.6628 27.7074 15.765C27.7089 15.7666 27.7105 15.7682 27.712 15.7698C27.7164 15.7744 27.7208 15.7789 27.7253 15.7835C28.0467 16.1048 28.3919 16.7051 28.7262 17.5255C29.0515 18.3239 29.333 19.2456 29.5647 20.1315C29.7957 21.0146 29.9729 21.8457 30.0924 22.4571C30.1521 22.7622 30.1972 23.0115 30.2272 23.1836C30.2422 23.2697 30.2535 23.3364 30.2609 23.3811L30.2691 23.4313L30.271 23.4433L30.2715 23.446C30.3447 23.9097 30.78 24.2267 31.2437 24.1534C31.7074 24.0802 32.0239 23.645 31.9507 23.1813L31.1111 23.3138C31.9507 23.1813 31.9507 23.1813 31.9507 23.1813L31.9497 23.1751L31.9473 23.1599L31.938 23.1032C31.9298 23.054 31.9178 22.9825 31.9019 22.8915C31.8702 22.7094 31.823 22.4487 31.7608 22.1308C31.6367 21.496 31.4519 20.6284 31.2094 19.7014C30.9677 18.7773 30.6645 17.7774 30.3006 16.8841C29.9473 16.0171 29.5015 15.1595 28.9357 14.5897Z" fill="url(#paint0_linear_849_55669)"/>
<path fill-rule="evenodd" clip-rule="evenodd" d="M9.39897 9.39897C9.73091 9.06702 10.2691 9.06702 10.601 9.39897L20.601 19.399C20.933 19.7309 20.933 20.2691 20.601 20.601C20.2691 20.933 19.7309 20.933 19.399 20.601L9.39897 10.601C9.06702 10.2691 9.06702 9.73091 9.39897 9.39897Z" fill="url(#paint1_linear_849_55669)"/>
<path fill-rule="evenodd" clip-rule="evenodd" d="M34.5104 24.3533C33.6922 23.536 32.3172 23.4977 31.3543 24.4594L24.3685 31.4374C23.9479 31.952 23.7389 32.4979 23.7389 32.9879C23.7389 33.554 23.8931 34.0636 24.3398 34.5097C24.672 34.8415 24.6723 35.3797 24.3405 35.7118C24.0087 36.0439 23.4705 36.0442 23.1384 35.7125C22.3097 34.8847 22.0389 33.908 22.0389 32.9879C22.0389 32.0006 22.4598 31.0713 23.0864 30.3202C23.1029 30.3004 23.1202 30.2815 23.1384 30.2633L30.1529 23.2567C31.7408 21.6706 34.1918 21.6322 35.7118 23.1505C36.0439 23.4823 36.0442 24.0204 35.7125 24.3526C35.3807 24.6847 34.8425 24.685 34.5104 24.3533Z" fill="url(#paint2_linear_849_55669)"/>
<path fill-rule="evenodd" clip-rule="evenodd" d="M37.1536 25.3131L25.3535 37.1132C25.3001 37.1926 25.2889 37.2707 25.2967 37.3279C25.2988 37.3436 25.3022 37.3573 25.3065 37.3695L27.1337 37.6606C27.5973 37.7344 27.9133 38.1701 27.8394 38.6337C27.7656 39.0973 27.3299 39.4133 26.8663 39.3394L24.7918 39.0089C24.6845 38.9918 24.5814 38.9543 24.4882 38.8984C23.4472 38.2738 23.3406 36.9058 24.0465 36.0234C24.0661 35.9989 24.087 35.9755 24.1092 35.9534L35.9534 24.1092C36.3961 23.6664 37.0041 23.5453 37.5123 23.6116C38.0227 23.6782 38.5765 23.9518 38.8984 24.4882C38.9471 24.5695 38.9819 24.6582 39.0014 24.7509L39.3319 26.3254C39.4283 26.7848 39.134 27.2354 38.6746 27.3319C38.2152 27.4283 37.7646 27.134 37.6681 26.6746L37.3844 25.3227C37.3619 25.3122 37.3317 25.3025 37.2924 25.2973C37.2449 25.2911 37.2046 25.2957 37.1778 25.3034C37.1634 25.3075 37.1561 25.3115 37.1536 25.3131Z" fill="url(#paint3_linear_849_55669)"/>
<path fill-rule="evenodd" clip-rule="evenodd" d="M18.55 20.5C18.55 19.423 19.423 18.55 20.5 18.55C21.5769 18.55 22.45 19.423 22.45 20.5C22.45 21.577 21.5769 22.45 20.5 22.45C19.423 22.45 18.55 21.577 18.55 20.5Z" fill="#A9AFBC"/>
<path d="M63.569 23.9933C63.2058 24.6678 62.6623 25.2283 61.9991 25.6124C61.2643 26.0258 60.4325 26.2362 59.5894 26.222C58.9603 26.2455 58.333 26.1396 57.7465 25.911C57.16 25.6823 56.6267 25.3358 56.1796 24.8928C55.7454 24.4617 55.4029 23.9473 55.1726 23.3805C54.9424 22.8137 54.8291 22.2063 54.8398 21.5946C54.8327 20.9804 54.9501 20.3712 55.1851 19.8036C55.42 19.236 55.7676 18.7219 56.2068 18.2923C56.646 17.8626 57.1677 17.5264 57.7405 17.3038C58.3132 17.0812 58.9252 16.9769 59.5394 16.9972C60.3773 16.9848 61.203 17.1989 61.9292 17.6169C62.599 18.0071 63.1409 18.5835 63.489 19.2759L63.579 19.4758L65.9988 18.0766L65.9088 17.9067C65.3563 16.7734 64.4747 15.8329 63.379 15.2082C62.2187 14.5382 60.8993 14.193 59.5594 14.2088C58.5597 14.1798 57.5645 14.3544 56.6345 14.7221C55.7045 15.0898 54.8591 15.6429 54.1498 16.3476C53.4489 17.0268 52.8961 17.8435 52.5261 18.7465C52.1562 19.6495 51.977 20.6191 52 21.5946C51.9781 22.5759 52.1575 23.5513 52.5273 24.4606C52.897 25.3699 53.4492 26.1939 54.1498 26.8816C54.8616 27.5752 55.7053 28.1192 56.631 28.4814C57.5567 28.8436 58.5456 29.0167 59.5394 28.9904C60.8683 28.9947 62.1751 28.6501 63.329 27.991C64.4429 27.3622 65.3655 26.4435 65.9988 25.3325L66.0988 25.1526L63.669 23.7734L63.569 23.9933Z" fill="black"/>
<path d="M74.7781 14.2088C73.7868 14.1871 72.8013 14.3654 71.8804 14.7328C70.9596 15.1003 70.1223 15.6495 69.4185 16.3476C68.7099 17.0229 68.1493 17.838 67.7724 18.7413C67.3954 19.6445 67.2103 20.6161 67.2287 21.5946C67.2095 22.5747 67.3942 23.5481 67.7712 24.453C68.1481 25.358 68.7091 26.1748 69.4185 26.8517C70.1223 27.5498 70.9596 28.099 71.8804 28.4664C72.8013 28.8339 73.7868 29.0121 74.7781 28.9904C75.7693 29.0115 76.7546 28.8331 77.6754 28.4656C78.5961 28.0982 79.4335 27.5493 80.1376 26.8517C80.8487 26.175 81.4121 25.3587 81.7924 24.4541C82.1726 23.5494 82.3616 22.5758 82.3474 21.5946C82.3602 20.6151 82.1706 19.6435 81.7903 18.7406C81.4101 17.8377 80.8474 17.0231 80.1376 16.3476C79.4335 15.65 78.5961 15.1011 77.6754 14.7336C76.7546 14.3662 75.7693 14.1877 74.7781 14.2088ZM78.1478 24.9227C77.2376 25.7765 76.0363 26.2517 74.7881 26.2517C73.5398 26.2517 72.3385 25.7765 71.4283 24.9227C70.9872 24.4901 70.6397 23.9714 70.4075 23.3989C70.1753 22.8263 70.0633 22.2122 70.0785 21.5946C70.0635 20.9786 70.1756 20.366 70.4078 19.7951C70.6401 19.2242 70.9874 18.7073 71.4283 18.2765C72.3385 17.4228 73.5398 16.9476 74.7881 16.9476C76.0363 16.9476 77.2376 17.4228 78.1478 18.2765C78.5905 18.7064 78.9397 19.223 79.1737 19.7939C79.4077 20.3648 79.5214 20.9778 79.5076 21.5946C79.5209 22.2129 79.4071 22.8272 79.1732 23.3997C78.9393 23.9722 78.5903 24.4906 78.1478 24.9227Z" fill="black"/>
<path d="M87.247 16.2776V14.5586H84.4072V28.6306H87.247V21.1849C87.1937 20.6124 87.2744 20.0353 87.4827 19.4993C87.6909 18.9634 88.021 18.4831 88.4469 18.0966C89.2813 17.4518 90.3249 17.1385 91.3766 17.2171H91.5966V14.3188H91.3866C90.5863 14.2614 89.7846 14.4115 89.0594 14.7547C88.3341 15.0979 87.7098 15.6225 87.247 16.2776Z" fill="black"/>
<path d="M99.9359 14.2088C98.9364 14.1721 97.9399 14.3403 97.0079 14.7029C96.0759 15.0656 95.228 15.6151 94.5164 16.3176C93.8251 17.0078 93.2822 17.8319 92.9211 18.7393C92.56 19.6468 92.3883 20.6184 92.4165 21.5946C92.3932 22.5788 92.5699 23.5575 92.936 24.4714C93.3021 25.3853 93.8499 26.2155 94.5464 26.9116C96.0512 28.3127 98.0505 29.0603 100.106 28.9904C101.342 29.0546 102.573 28.7951 103.678 28.2377C104.783 27.6803 105.723 26.8442 106.405 25.8122L106.535 25.6224L104.106 24.2731L103.996 24.443C103.586 25.0753 103.013 25.5848 102.337 25.9174C101.661 26.25 100.907 26.3933 100.156 26.332C99.0012 26.367 97.8678 26.0152 96.9361 25.3325C96.1453 24.7223 95.5905 23.857 95.3663 22.8839H106.995V22.704C107.054 22.3404 107.084 21.9729 107.085 21.6046C107.135 19.6697 106.416 17.7937 105.085 16.3876C104.439 15.6703 103.642 15.1035 102.753 14.7271C101.863 14.3506 100.901 14.1737 99.9359 14.2088ZM95.3563 20.4053C95.5415 19.4141 96.0688 18.5193 96.8462 17.8767C97.7266 17.1911 98.8205 16.8372 99.9359 16.8773C100.966 16.8596 101.967 17.2146 102.756 17.8767C103.505 18.5446 104.005 19.4465 104.176 20.4353L95.3563 20.4053Z" fill="black"/>
<path d="M110.795 9.00176C110.317 9.0096 109.86 9.20438 109.524 9.54437C109.187 9.88437 108.998 10.3425 108.995 10.8207C108.993 11.0571 109.039 11.2915 109.13 11.5096C109.221 11.7278 109.356 11.9252 109.525 12.09C109.879 12.4307 110.354 12.6176 110.845 12.6097C111.327 12.614 111.791 12.4271 112.135 12.09C112.305 11.9243 112.44 11.7261 112.533 11.5073C112.625 11.2884 112.673 11.0533 112.673 10.8157C112.673 10.5782 112.625 10.3431 112.533 10.1242C112.44 9.90536 112.305 9.70721 112.135 9.54146C111.963 9.36083 111.755 9.21916 111.524 9.12605C111.292 9.03293 111.044 8.99055 110.795 9.00176Z" fill="black"/>
<path d="M112.195 14.3188H109.355V28.6406H112.195V14.3188Z" fill="black"/>
<path d="M126.184 23.9933C125.811 24.6856 125.249 25.2576 124.564 25.6423C123.829 26.0558 122.997 26.2662 122.154 26.252C121.531 26.2647 120.912 26.1507 120.335 25.9171C119.757 25.6834 119.233 25.335 118.794 24.8928C118.36 24.4617 118.017 23.9473 117.787 23.3805C117.557 22.8137 117.444 22.2063 117.454 21.5946C117.447 20.9804 117.565 20.3712 117.8 19.8036C118.035 19.236 118.382 18.7219 118.821 18.2923C119.261 17.8626 119.782 17.5264 120.355 17.3038C120.928 17.0812 121.54 16.9769 122.154 16.9972C122.992 16.9848 123.818 17.1989 124.544 17.6169C125.214 18.0071 125.756 18.5835 126.104 19.2759L126.194 19.4758L128.593 18.1266L128.503 17.9567C127.965 16.8077 127.089 15.8493 125.994 15.2082C124.833 14.5382 123.514 14.193 122.174 14.2088C121.178 14.1825 120.186 14.3585 119.26 14.7261C118.334 15.0937 117.491 15.6453 116.784 16.3476C116.084 17.0268 115.531 17.8435 115.161 18.7465C114.791 19.6495 114.612 20.6191 114.635 21.5946C114.613 22.5759 114.792 23.5513 115.162 24.4606C115.532 25.3699 116.084 26.1939 116.784 26.8816C117.494 27.5728 118.334 28.1153 119.256 28.4775C120.178 28.8396 121.164 29.014 122.154 28.9904C123.5 29.005 124.826 28.6599 125.994 27.991C127.11 27.3567 128.033 26.4309 128.663 25.3125L128.763 25.1326L126.334 23.7534L126.184 23.9933Z" fill="black"/>
<path d="M137.393 14.2088C136.395 14.1817 135.402 14.3573 134.474 14.7249C133.545 15.0925 132.702 15.6446 131.993 16.3476C131.286 17.0234 130.727 17.8389 130.352 18.7421C129.976 19.6454 129.793 20.6168 129.813 21.5946C129.792 22.5741 129.975 23.5472 130.35 24.4522C130.726 25.3572 131.285 26.1743 131.993 26.8517C133.439 28.2254 135.358 28.9914 137.353 28.9914C139.348 28.9914 141.266 28.2254 142.712 26.8517C143.437 26.1819 144.014 25.3685 144.407 24.4634C144.799 23.5582 144.999 22.5812 144.992 21.5946C145.007 20.6148 144.819 19.6424 144.438 18.7392C144.058 17.836 143.494 17.0216 142.782 16.3476C142.075 15.6463 141.232 15.0953 140.306 14.7277C139.38 14.3602 138.389 14.1837 137.393 14.2088ZM140.762 24.9227C140.317 25.357 139.79 25.6983 139.211 25.9265C138.633 26.1547 138.015 26.2654 137.393 26.252C136.775 26.2642 136.162 26.1529 135.588 25.9246C135.015 25.6963 134.493 25.3557 134.053 24.9227C133.609 24.492 133.258 23.9739 133.024 23.4011C132.79 22.8283 132.677 22.2132 132.693 21.5946C132.678 20.9776 132.79 20.364 133.024 19.7929C133.259 19.2217 133.609 18.7053 134.053 18.2765C134.496 17.8507 135.019 17.5181 135.593 17.2983C136.167 17.0786 136.779 16.9762 137.393 16.9972C138.015 16.9816 138.634 17.0912 139.213 17.3195C139.792 17.5479 140.319 17.8903 140.762 18.3265C141.205 18.7564 141.554 19.273 141.788 19.8439C142.022 20.4148 142.136 21.0278 142.122 21.6446C142.129 22.2545 142.012 22.8593 141.778 23.4227C141.544 23.9861 141.199 24.4964 140.762 24.9227Z" fill="black"/>
<path d="M158.451 15.7879C157.917 15.2573 157.279 14.843 156.577 14.5712C155.874 14.2994 155.123 14.176 154.371 14.2088C153.556 14.1632 152.741 14.3095 151.993 14.6358C151.244 14.9621 150.583 15.4594 150.062 16.0878V14.5586H147.222V28.6306H150.062V21.1849C149.986 20.0299 150.355 18.8897 151.091 17.9967C151.46 17.6333 151.9 17.3506 152.384 17.1664C152.868 16.9823 153.384 16.9009 153.901 16.9273C154.338 16.9024 154.775 16.9667 155.186 17.1162C155.597 17.2657 155.973 17.4973 156.291 17.7968C156.588 18.1223 156.818 18.504 156.965 18.9193C157.113 19.3347 157.176 19.7753 157.151 20.2154V28.6706H159.991V20.0455C160.03 19.2692 159.913 18.493 159.649 17.762C159.385 17.031 158.977 16.36 158.451 15.7879Z" fill="black"/>
<defs>
<linearGradient id="paint0_linear_849_55669" x1="9.9471" y1="9.9471" x2="28.8833" y2="28.8833" gradientUnits="userSpaceOnUse">
<stop offset="0.53125" stop-color="white"/>
<stop offset="0.974207" stop-color="#1C2028"/>
</linearGradient>
<linearGradient id="paint1_linear_849_55669" x1="9.99999" y1="9.99999" x2="21.6667" y2="21.6667" gradientUnits="userSpaceOnUse">
<stop offset="0.315476" stop-color="white"/>
<stop offset="0.974207" stop-color="#1C2028" stop-opacity="0"/>
</linearGradient>
<linearGradient id="paint2_linear_849_55669" x1="34.8393" y1="34.1485" x2="27.2409" y2="26.5494" gradientUnits="userSpaceOnUse">
<stop offset="0.0386897" stop-color="#1C2028" stop-opacity="0"/>
<stop offset="1" stop-color="#F0F3F7"/>
</linearGradient>
<linearGradient id="paint3_linear_849_55669" x1="37.4188" y1="33.6346" x2="27.1474" y2="23.9038" gradientUnits="userSpaceOnUse">
<stop offset="0.237991" stop-color="#1C2028" stop-opacity="0"/>
<stop offset="0.555968" stop-color="#E8ECF0"/>
</linearGradient>
</defs>
</svg>
