<svg id="logo-codsgn-sm" width="60" height="14" viewBox="0 0 60 14" fill="none" xmlns="http://www.w3.org/2000/svg">
<path d="M6.90007 8.16358L9.125 10.3389L7.69679 11.7352L6.00078 10.077C5.84571 9.92701 5.72207 9.74656 5.63734 9.54656C5.55261 9.34657 5.50855 9.13117 5.50778 8.91336V5.08651C5.50855 4.86871 5.55261 4.65331 5.63734 4.45332C5.72207 4.25333 5.84571 4.07287 6.00078 3.92284L7.69679 2.26468L9.1249 3.66111L6.90007 5.83631C6.74456 5.98599 6.62063 6.16636 6.53587 6.36643C6.45111 6.5665 6.40731 6.78205 6.40711 6.99994C6.4073 7.21783 6.45111 7.43339 6.53587 7.63346C6.62063 7.83353 6.74456 8.01391 6.90007 8.16358V8.16358ZM1.77432 6.99995C1.77452 6.78207 1.81836 6.56651 1.90312 6.36644C1.98787 6.16638 2.11178 5.986 2.26729 5.83632L6.80862 1.39635L5.38038 0L1.368 3.9229C1.21293 4.07293 1.08929 4.25339 1.00456 4.45338C0.919827 4.65338 0.875765 4.86877 0.875 5.08658V8.91342C0.875764 9.13123 0.919827 9.34662 1.00456 9.54662C1.08929 9.74661 1.21292 9.92707 1.368 10.0771L5.38038 14L6.80859 12.6037L2.26729 8.16358C2.11178 8.0139 1.98787 7.83352 1.90312 7.63345C1.81836 7.43339 1.77452 7.21783 1.77432 6.99994V6.99995Z" fill="#121416"/>
<path fill-rule="evenodd" clip-rule="evenodd" d="M23.5782 2.91992C23.6894 2.91992 23.7991 2.92367 23.9073 2.93117L23.1953 4.43428C22.9048 4.47719 22.6312 4.57014 22.3744 4.71311C22.0152 4.90984 21.7248 5.20492 21.5031 5.59836C21.2891 5.98424 21.1821 6.44956 21.1821 6.99432C21.1821 7.45132 21.257 7.85638 21.4069 8.20952L20.6133 9.88475C20.3728 9.63937 20.1649 9.36064 19.9898 9.04855C19.6535 8.43569 19.4853 7.75095 19.4853 6.99432C19.4853 6.22257 19.6611 5.52648 20.0127 4.90605C20.3643 4.28562 20.8496 3.80139 21.4687 3.45334C22.0955 3.09773 22.7986 2.91992 23.5782 2.91992ZM20.9872 11.4546C20.9816 11.4462 20.978 11.4368 20.9765 11.4264L25.1978 2.53878C25.2219 2.51293 25.2553 2.5 25.298 2.5H26.1693C26.2075 2.5 26.2343 2.51513 26.2496 2.5454C26.2648 2.5681 26.2648 2.59836 26.2496 2.63619L25.8254 3.53279C26.3986 3.89596 26.8457 4.3802 27.1667 4.9855C27.4878 5.58323 27.6483 6.25284 27.6483 6.99432C27.6483 7.76608 27.4725 8.46217 27.1209 9.0826C26.7693 9.70303 26.284 10.191 25.6649 10.5467C25.0457 10.9023 24.3502 11.0801 23.5782 11.0801C23.1502 11.0801 22.7299 11.0195 22.3171 10.8985L22.0649 11.4206C22.042 11.4735 21.9999 11.5 21.9388 11.5H21.0674C21.0292 11.5 21.0025 11.4849 20.9872 11.4546ZM23.5782 9.59332C24.0139 9.59332 24.4114 9.49496 24.7706 9.29823C25.1375 9.09395 25.4279 8.79508 25.6419 8.40164C25.8559 8.0082 25.9629 7.53909 25.9629 6.99432C25.9629 6.55548 25.8903 6.16204 25.7451 5.814C25.5999 5.46595 25.3973 5.18222 25.1375 4.9628L22.9706 9.52522C23.1693 9.57062 23.3719 9.59332 23.5782 9.59332ZM18.0741 8.90116C18.0285 8.84063 17.9753 8.84063 17.9146 8.90116C17.7398 9.09789 17.4967 9.26434 17.1852 9.40053C16.8813 9.52916 16.5394 9.59347 16.1596 9.59347C15.7645 9.59347 15.3732 9.49133 14.9858 9.28704C14.6059 9.07519 14.2944 8.77254 14.0513 8.3791C13.8082 7.97809 13.6866 7.51277 13.6866 6.98313C13.6866 6.4535 13.8082 5.99574 14.0513 5.60986C14.2944 5.21642 14.6059 4.91756 14.9858 4.71327C15.3656 4.50898 15.7569 4.40684 16.1596 4.40684C16.5394 4.40684 16.8813 4.47115 17.1852 4.59978C17.4967 4.7284 17.7398 4.89108 17.9146 5.0878C17.9601 5.11806 17.9867 5.13319 17.9943 5.13319C18.0171 5.13319 18.0437 5.11806 18.0741 5.0878L18.9174 4.1685C18.9478 4.1458 18.963 4.11932 18.963 4.08906C18.963 4.05879 18.9478 4.03231 18.9174 4.00961C18.5679 3.68427 18.1539 3.42323 17.6752 3.22651C17.2042 3.02222 16.699 2.92008 16.1596 2.92008C15.3922 2.92008 14.6895 3.10545 14.0513 3.47619C13.4207 3.83937 12.9193 4.33118 12.547 4.95161C12.1823 5.57203 12 6.24921 12 6.98313C12 7.71705 12.1823 8.39801 12.547 9.02601C12.9193 9.654 13.4245 10.1534 14.0627 10.5241C14.7009 10.8949 15.3998 11.0802 16.1596 11.0802C16.7825 11.0802 17.3068 10.9857 17.7322 10.7965C18.1653 10.5998 18.5603 10.3274 18.9174 9.97935C18.9478 9.95665 18.9592 9.93017 18.9516 9.8999C18.9516 9.86964 18.9402 9.84316 18.9174 9.82046L18.0741 8.90116ZM35.7375 7.00507C35.7375 7.76169 35.5496 8.45022 35.1738 9.07064C34.8054 9.68351 34.3018 10.1677 33.6629 10.5234C33.024 10.8714 32.3212 11.0454 31.5545 11.0454H28.7132C28.638 11.0454 28.6004 11.0076 28.6004 10.9319V3.06686C28.6004 2.9912 28.638 2.95337 28.7132 2.95337H31.5545C32.3212 2.95337 33.024 3.13118 33.6629 3.48679C34.3018 3.8424 34.8054 4.33042 35.1738 4.95085C35.5496 5.56371 35.7375 6.24845 35.7375 7.00507ZM34.0688 7.00507C34.0688 6.52083 33.9561 6.08199 33.7306 5.68855C33.5051 5.29511 33.2044 4.98868 32.8286 4.76926C32.4602 4.54984 32.0656 4.44013 31.6447 4.44013H30.3819C30.3067 4.44013 30.2691 4.47796 30.2691 4.55362V9.45652C30.2691 9.53218 30.3067 9.57001 30.3819 9.57001H31.6447C32.0656 9.57001 32.4602 9.4603 32.8286 9.24088C33.2044 9.0139 33.5051 8.70747 33.7306 8.32159C33.9561 7.92815 34.0688 7.48931 34.0688 7.00507ZM38.3067 10.7625C38.7882 10.9744 39.3462 11.0803 39.9806 11.0803C40.5691 11.0803 41.0888 10.9857 41.5398 10.7966C41.9907 10.6074 42.3385 10.3388 42.5831 9.99078C42.8277 9.64274 42.95 9.23416 42.95 8.76506C42.95 8.30352 42.8468 7.92521 42.6404 7.63013C42.4341 7.32748 42.1474 7.08536 41.7806 6.90377C41.4137 6.72218 40.9436 6.55573 40.3704 6.4044C39.7895 6.25308 39.3806 6.13959 39.1436 6.06392C38.9143 5.9807 38.7309 5.87855 38.5933 5.75749C38.4558 5.63643 38.387 5.46998 38.387 5.25812C38.387 4.99331 38.5054 4.78524 38.7424 4.63391C38.987 4.48259 39.2774 4.40692 39.6137 4.40692C39.9882 4.40692 40.2939 4.49015 40.5309 4.65661C40.7678 4.8155 40.9245 5.02357 41.0009 5.28082C41.0162 5.31865 41.0277 5.34892 41.0353 5.37162C41.0506 5.38675 41.0697 5.39431 41.0927 5.39431H41.1156L42.5831 5.20138C42.6595 5.18624 42.6977 5.1522 42.6977 5.09923V5.08788C42.6137 4.73227 42.4493 4.39179 42.2048 4.06645C41.9602 3.73353 41.6162 3.46115 41.1729 3.2493C40.7373 3.02988 40.2061 2.92017 39.5793 2.92017C39.0366 2.92017 38.5436 3.02609 38.1003 3.23795C37.657 3.4498 37.3093 3.72975 37.057 4.0778C36.8125 4.41827 36.6902 4.78145 36.6902 5.16733C36.6902 5.65157 36.7934 6.04501 36.9997 6.34766C37.2137 6.6503 37.4889 6.88107 37.8252 7.03996C38.1615 7.19885 38.5895 7.35018 39.1092 7.49394C39.2392 7.53177 39.4341 7.58095 39.694 7.64148C40.0608 7.73227 40.3475 7.8155 40.5538 7.89116C40.7602 7.95926 40.9283 8.06518 41.0583 8.20894C41.1959 8.34513 41.2646 8.53051 41.2646 8.76506C41.2646 9.02231 41.1538 9.2266 40.9322 9.37792C40.7105 9.52168 40.4124 9.59356 40.0379 9.59356C39.564 9.59356 39.178 9.48385 38.88 9.26443C38.5819 9.04501 38.3755 8.79911 38.2609 8.52672C38.2303 8.45106 38.1959 8.41323 38.1577 8.41323H38.1347L36.6902 8.66291C36.6137 8.67805 36.5755 8.70831 36.5755 8.75371V8.77641C36.6749 9.18498 36.8698 9.56329 37.1602 9.91134C37.4507 10.2594 37.8328 10.5431 38.3067 10.7625ZM51.2291 6.37036C51.3038 6.37036 51.3412 6.40819 51.3412 6.48385V6.99457C51.3412 7.75119 51.1843 8.44349 50.8705 9.07149C50.5567 9.69192 50.1085 10.1837 49.5257 10.5469C48.9504 10.9025 48.2781 11.0803 47.5085 11.0803C46.7839 11.0803 46.1152 10.8987 45.5026 10.5356C44.8899 10.1648 44.4043 9.66922 44.0457 9.04879C43.6871 8.4208 43.5078 7.73605 43.5078 6.99457C43.5078 6.26064 43.6871 5.58347 44.0457 4.96304C44.4118 4.33505 44.9012 3.83946 45.5138 3.47628C46.1339 3.10554 46.81 2.92017 47.5422 2.92017C48.1174 2.92017 48.6441 3.01853 49.1223 3.21525C49.6004 3.41197 50.0263 3.68814 50.3998 4.04375C50.4596 4.10428 50.4596 4.15724 50.3998 4.20264L49.4809 5.13328C49.4286 5.18624 49.3763 5.18624 49.324 5.13328C49.0924 4.91386 48.8384 4.73984 48.562 4.61121C48.2855 4.47502 47.9456 4.40692 47.5422 4.40692C47.0715 4.40692 46.6568 4.5242 46.2982 4.75875C45.9396 4.99331 45.6595 5.31109 45.4577 5.7121C45.2635 6.10554 45.1664 6.53303 45.1664 6.99457C45.1664 7.46367 45.2635 7.89873 45.4577 8.29974C45.6595 8.69318 45.9434 9.00718 46.3094 9.24173C46.683 9.47628 47.1163 9.59356 47.6094 9.59356C48.0651 9.59356 48.4499 9.50276 48.7637 9.32117C49.0775 9.13202 49.3091 8.90503 49.4585 8.64022C49.6154 8.36783 49.6938 8.11058 49.6938 7.86846C49.6938 7.7928 49.6602 7.75497 49.593 7.75497H47.8111C47.7364 7.75497 47.6991 7.71714 47.6991 7.64148V6.48385C47.6991 6.40819 47.7364 6.37036 47.8111 6.37036H51.2291ZM58.8849 11.0454C58.9613 11.0454 58.9996 11.0076 58.9996 10.9319V3.06686C58.9996 2.9912 58.9613 2.95337 58.8849 2.95337H57.4174C57.341 2.95337 57.3028 2.9912 57.3028 3.06686V7.56119C57.3028 7.63685 57.2798 7.67468 57.234 7.67468C57.211 7.67468 57.1881 7.65576 57.1652 7.61793L53.5996 3.02147C53.5614 2.97607 53.5155 2.95337 53.462 2.95337H52.5105C52.434 2.95337 52.3958 2.9912 52.3958 3.06686V10.9319C52.3958 11.0076 52.434 11.0454 52.5105 11.0454H53.978C54.0544 11.0454 54.0926 11.0076 54.0926 10.9319V6.42626C54.0926 6.35816 54.1117 6.32411 54.1499 6.32411C54.1729 6.32411 54.1996 6.33925 54.2302 6.36951L57.7958 10.9773C57.834 11.0227 57.8798 11.0454 57.9333 11.0454H58.8849Z" fill="#121416"/>
</svg>
