<svg width="156" height="36" viewBox="0 0 156 36" fill="none" xmlns="http://www.w3.org/2000/svg">
<g clip-path="url(#clip0_1318_56835)">
<path d="M2.6226e-06 18C2.6226e-06 29.8929 3.85715 36 18 36C32.1429 36 36 29.5714 36 18C36 6.42858 32.1429 7.62939e-06 18 7.62939e-06C3.85715 7.62939e-06 2.6226e-06 6.10715 2.6226e-06 18Z" fill="#121B2B"/>
<path fill-rule="evenodd" clip-rule="evenodd" d="M8.18499 7.25771L8 8.00001L7.2577 8.185C7.19277 7.92445 7.2692 7.64894 7.45906 7.45907C7.64893 7.2692 7.92445 7.19278 8.18499 7.25771ZM26.0421 13.1307C25.7263 12.8003 25.1777 12.5025 24.6021 12.2369C23.9843 11.9517 23.2078 11.6485 22.3403 11.3395C20.6031 10.7208 18.4491 10.061 16.3573 9.45793C14.2631 8.85419 12.2205 8.30427 10.7022 7.90547C9.94281 7.70601 9.31407 7.54421 8.87495 7.43222C8.65537 7.37622 8.48318 7.33267 8.36574 7.30308L8.23154 7.26935L8.18499 7.25771C8.18499 7.25771 8.18499 7.25771 8 8.00001C7.2577 8.185 7.2577 8.185 7.2577 8.185L7.26935 8.23155L7.30307 8.36574C7.33266 8.48319 7.37621 8.65538 7.43221 8.87495C7.5442 9.31408 7.706 9.94282 7.90546 10.7022C8.30427 12.2205 8.85418 14.2631 9.45792 16.3573C10.061 18.4491 10.7208 20.6032 11.3395 22.3403C11.6485 23.2078 11.9517 23.9843 12.2369 24.6021C12.5025 25.1777 12.8003 25.7263 13.1307 26.0421C13.6435 26.5514 14.4154 26.9526 15.1957 27.2705C15.9997 27.5981 16.8995 27.871 17.7312 28.0885C18.5656 28.3067 19.3464 28.473 19.9177 28.5848C20.2038 28.6407 20.4385 28.6831 20.6023 28.7117C20.6843 28.726 20.7486 28.7369 20.7928 28.7442L20.8439 28.7526L20.8576 28.7548L20.8625 28.7556C20.8625 28.7556 20.8631 28.7556 20.9825 28L20.8625 28.7556C21.2799 28.8214 21.6722 28.5366 21.7381 28.1193C21.804 27.702 21.5191 27.3103 21.1019 27.2444V27.2444L21.099 27.2439L21.0881 27.2422L21.0429 27.2348C21.0027 27.2281 20.9427 27.218 20.8653 27.2045C20.7103 27.1775 20.486 27.1369 20.2113 27.0832C19.6611 26.9756 18.9131 26.8161 18.1184 26.6083C17.321 26.3997 16.4915 26.1463 15.773 25.8536C15.0345 25.5527 14.4943 25.242 14.2051 24.9528C14.2029 24.9506 14.2006 24.9484 14.1984 24.9462C14.1951 24.943 14.1918 24.9398 14.1885 24.9367C14.0965 24.8501 13.9007 24.5561 13.6261 23.961C13.3684 23.4028 13.0827 22.6747 12.7808 21.827C12.1777 20.1337 11.528 18.0146 10.928 15.9335C10.3288 13.8548 9.7822 11.8247 9.38527 10.3135C9.26065 9.83905 9.15083 9.41597 9.05882 9.05883C9.41596 9.15084 9.83904 9.26065 10.3135 9.38527C11.8247 9.78221 13.8547 10.3288 15.9335 10.9281C18.0146 11.528 20.1337 12.1777 21.827 12.7808C22.6747 13.0827 23.4028 13.3684 23.9609 13.6261C24.5561 13.9007 24.8501 14.0965 24.9367 14.1885C24.938 14.1899 24.9394 14.1914 24.9408 14.1928C24.9447 14.197 24.9487 14.2011 24.9528 14.2051C25.242 14.4943 25.5527 15.0345 25.8536 15.773C26.1463 16.4915 26.3997 17.321 26.6083 18.1184C26.8161 18.9131 26.9756 19.6611 27.0832 20.2113C27.1369 20.486 27.1775 20.7103 27.2045 20.8653C27.218 20.9427 27.2281 21.0027 27.2348 21.043L27.2422 21.0881L27.2439 21.099L27.2443 21.1014C27.3102 21.5187 27.702 21.804 28.1193 21.7381C28.5366 21.6722 28.8215 21.2805 28.7556 20.8632L28 20.9825C28.7556 20.8632 28.7556 20.8632 28.7556 20.8632L28.7548 20.8576L28.7526 20.8439L28.7442 20.7928C28.7369 20.7486 28.726 20.6843 28.7117 20.6023C28.6831 20.4385 28.6407 20.2039 28.5847 19.9177C28.473 19.3464 28.3067 18.5656 28.0885 17.7313C27.871 16.8995 27.598 15.9997 27.2705 15.1957C26.9526 14.4154 26.5514 13.6435 26.0421 13.1307Z" fill="url(#paint0_linear_1318_56835)"/>
<path fill-rule="evenodd" clip-rule="evenodd" d="M8.45906 8.45907C8.75781 8.16032 9.24219 8.16032 9.54094 8.45907L18.5409 17.4591C18.8397 17.7578 18.8397 18.2422 18.5409 18.5409C18.2422 18.8397 17.7578 18.8397 17.4591 18.5409L8.45906 9.54094C8.16031 9.24219 8.16031 8.75782 8.45906 8.45907Z" fill="url(#paint1_linear_1318_56835)"/>
<path fill-rule="evenodd" clip-rule="evenodd" d="M31.0594 21.9179C30.323 21.1824 29.0855 21.1479 28.2189 22.0135L21.9317 28.2936C21.5532 28.7568 21.365 29.2481 21.365 29.6891C21.365 30.1986 21.5039 30.6572 21.9059 31.0588C22.2048 31.3573 22.2051 31.8417 21.9065 32.1406C21.6079 32.4396 21.1235 32.4398 20.8246 32.1412C20.0788 31.3963 19.835 30.5172 19.835 29.6891C19.835 28.8006 20.2139 27.9641 20.7778 27.2881C20.7926 27.2704 20.8082 27.2533 20.8246 27.237L27.1377 20.931C28.5667 19.5035 30.7727 19.469 32.1407 20.8355C32.4396 21.134 32.4398 21.6184 32.1413 21.9173C31.8427 22.2162 31.3583 22.2165 31.0594 21.9179Z" fill="url(#paint2_linear_1318_56835)"/>
<path fill-rule="evenodd" clip-rule="evenodd" d="M33.4383 22.7818L22.8182 33.4019C22.7701 33.4733 22.76 33.5436 22.767 33.5951C22.769 33.6092 22.772 33.6216 22.7759 33.6325L24.4204 33.8945C24.8376 33.961 25.122 34.3531 25.0555 34.7703C24.989 35.1876 24.5969 35.4719 24.1797 35.4055L22.3127 35.1081C22.2161 35.0927 22.1233 35.0589 22.0394 35.0086C21.1025 34.4464 21.0065 33.2152 21.6418 32.4211C21.6595 32.399 21.6783 32.378 21.6983 32.358L32.3581 21.6982C32.7565 21.2998 33.3037 21.1908 33.7611 21.2505C34.2205 21.3104 34.7189 21.5566 35.0086 22.0394C35.0524 22.1125 35.0838 22.1924 35.1013 22.2759L35.3987 23.6929C35.4855 24.1063 35.2207 24.5119 34.8072 24.5987C34.3937 24.6855 33.9881 24.4206 33.9013 24.0071L33.646 22.7904C33.6257 22.781 33.5986 22.7722 33.5632 22.7676C33.5204 22.762 33.4841 22.7661 33.46 22.773C33.4471 22.7768 33.4405 22.7804 33.4383 22.7818Z" fill="url(#paint3_linear_1318_56835)"/>
<path fill-rule="evenodd" clip-rule="evenodd" d="M16.695 18.45C16.695 17.4807 17.4807 16.695 18.45 16.695C19.4193 16.695 20.205 17.4807 20.205 18.45C20.205 19.4193 19.4193 20.205 18.45 20.205C17.4807 20.205 16.695 19.4193 16.695 18.45Z" fill="#A9AFBC"/>
</g>
<path d="M57.7832 20.9933C57.4133 21.6678 56.8597 22.2283 56.1843 22.6124C55.4358 23.0258 54.5887 23.2362 53.7299 23.222C53.0891 23.2455 52.4503 23.1396 51.8529 22.911C51.2556 22.6823 50.7124 22.3358 50.257 21.8928C49.8147 21.4617 49.4659 20.9473 49.2313 20.3805C48.9968 19.8137 48.8815 19.2063 48.8923 18.5946C48.8851 17.9804 49.0048 17.3712 49.2441 16.8036C49.4834 16.236 49.8373 15.7219 50.2847 15.2923C50.732 14.8626 51.2634 14.5264 51.8467 14.3038C52.4301 14.0812 53.0534 13.9769 53.679 13.9972C54.5324 13.9848 55.3734 14.1989 56.113 14.6169C56.7953 15.0071 57.3472 15.5835 57.7018 16.2759L57.7934 16.4758L60.258 15.0766L60.1664 14.9067C59.6036 13.7734 58.7057 12.8329 57.5897 12.2082C56.4079 11.5382 55.0641 11.193 53.6993 11.2088C52.6811 11.1798 51.6675 11.3544 50.7203 11.7221C49.7731 12.0898 48.912 12.6429 48.1896 13.3476C47.4757 14.0268 46.9127 14.8435 46.5358 15.7465C46.159 16.6495 45.9766 17.6191 46 18.5946C45.9777 19.5759 46.1604 20.5513 46.537 21.4606C46.9136 22.3699 47.476 23.1939 48.1896 23.8816C48.9146 24.5752 49.7739 25.1192 50.7167 25.4814C51.6596 25.8436 52.6668 26.0167 53.679 25.9904C55.0325 25.9947 56.3636 25.6501 57.5388 24.991C58.6733 24.3622 59.613 23.4435 60.258 22.3325L60.3599 22.1526L57.8851 20.7734L57.7832 20.9933Z" fill="#121B2B"/>
<path d="M69.1998 11.2088C68.1902 11.1871 67.1865 11.3654 66.2486 11.7328C65.3107 12.1003 64.4579 12.6495 63.7411 13.3476C63.0193 14.0229 62.4483 14.838 62.0644 15.7413C61.6805 16.6445 61.4919 17.6161 61.5107 18.5946C61.4911 19.5747 61.6793 20.5481 62.0632 21.453C62.4472 22.358 63.0185 23.1748 63.7411 23.8517C64.4579 24.5498 65.3107 25.099 66.2486 25.4664C67.1865 25.8339 68.1902 26.0121 69.1998 25.9904C70.2094 26.0115 71.213 25.8331 72.1508 25.4656C73.0886 25.0982 73.9415 24.5493 74.6586 23.8517C75.3829 23.175 75.9567 22.3587 76.344 21.4541C76.7314 20.5494 76.9238 19.5758 76.9094 18.5946C76.9224 17.6151 76.7293 16.6435 76.342 15.7406C75.9547 14.8377 75.3816 14.0231 74.6586 13.3476C73.9415 12.65 73.0886 12.1011 72.1508 11.7336C71.213 11.3662 70.2094 11.1877 69.1998 11.2088ZM72.632 21.9227C71.7049 22.7765 70.4813 23.2517 69.21 23.2517C67.9387 23.2517 66.7151 22.7765 65.7881 21.9227C65.3388 21.4901 64.9848 20.9714 64.7483 20.3989C64.5118 19.8263 64.3977 19.2122 64.4132 18.5946C64.3979 17.9786 64.5121 17.366 64.7487 16.7951C64.9852 16.2242 65.339 15.7073 65.7881 15.2765C66.7151 14.4228 67.9387 13.9476 69.21 13.9476C70.4813 13.9476 71.7049 14.4228 72.632 15.2765C73.0829 15.7064 73.4386 16.223 73.6769 16.7939C73.9152 17.3648 74.031 17.9778 74.017 18.5946C74.0306 19.2129 73.9146 19.8272 73.6764 20.3997C73.4381 20.9722 73.0826 21.4906 72.632 21.9227Z" fill="#121B2B"/>
<path d="M81.8997 13.2776V11.5586H79.0073V25.6306H81.8997V18.1849C81.8454 17.6124 81.9276 17.0353 82.1397 16.4993C82.3518 15.9634 82.688 15.4831 83.1218 15.0966C83.9716 14.4518 85.0346 14.1385 86.1058 14.2171H86.3299V11.3188H86.116C85.3008 11.2614 84.4843 11.4115 83.7456 11.7547C83.007 12.0979 82.3711 12.6225 81.8997 13.2776Z" fill="#121B2B"/>
<path d="M94.8236 11.2088C93.8056 11.1721 92.7907 11.3403 91.8414 11.7029C90.8921 12.0656 90.0284 12.6151 89.3037 13.3176C88.5996 14.0078 88.0467 14.8319 87.6789 15.7393C87.3111 16.6468 87.1362 17.6184 87.165 18.5946C87.1412 19.5788 87.3212 20.5575 87.6941 21.4714C88.0669 22.3853 88.6249 23.2155 89.3342 23.9116C90.867 25.3127 92.9032 26.0603 94.9967 25.9904C96.2555 26.0546 97.5096 25.7951 98.6349 25.2377C99.7602 24.6803 100.718 23.8442 101.413 22.8122L101.545 22.6224L99.0704 21.2731L98.9584 21.443C98.5413 22.0753 97.9574 22.5848 97.2688 22.9174C96.5802 23.25 95.8126 23.3933 95.0476 23.332C93.8715 23.367 92.7172 23.0152 91.7683 22.3325C90.9628 21.7223 90.3977 20.857 90.1693 19.8839H102.014V19.704C102.073 19.3404 102.104 18.9729 102.105 18.6046C102.156 16.6697 101.424 14.7937 100.068 13.3876C99.4096 12.6703 98.5986 12.1035 97.6924 11.7271C96.7862 11.3506 95.8069 11.1737 94.8236 11.2088ZM90.1592 17.4053C90.3478 16.4141 90.8848 15.5193 91.6766 14.8767C92.5734 14.1911 93.6875 13.8372 94.8236 13.8773C95.8724 13.8596 96.8924 14.2146 97.6955 14.8767C98.4585 15.5446 98.9683 16.4465 99.1417 17.4353L90.1592 17.4053Z" fill="#121B2B"/>
<path d="M105.884 6.00176C105.397 6.0096 104.932 6.20438 104.589 6.54437C104.246 6.88437 104.053 7.34254 104.051 7.82073C104.048 8.05712 104.095 8.29147 104.188 8.50963C104.281 8.72778 104.418 8.92522 104.59 9.09001C104.951 9.43074 105.434 9.61759 105.935 9.60972C106.425 9.614 106.898 9.42711 107.248 9.09001C107.422 8.92426 107.56 8.72611 107.654 8.50726C107.748 8.2884 107.796 8.05327 107.796 7.81574C107.796 7.5782 107.748 7.34307 107.654 7.12421C107.56 6.90536 107.422 6.70721 107.248 6.54146C107.074 6.36083 106.861 6.21916 106.626 6.12605C106.39 6.03293 106.137 5.99055 105.884 6.00176Z" fill="#121B2B"/>
<path d="M107.31 11.3188H104.417V25.6406H107.31V11.3188Z" fill="#121B2B"/>
<path d="M121.557 20.9933C121.178 21.6856 120.606 22.2576 119.908 22.6423C119.159 23.0558 118.312 23.2662 117.453 23.252C116.819 23.2647 116.188 23.1507 115.6 22.9171C115.012 22.6834 114.478 22.335 114.031 21.8928C113.589 21.4617 113.24 20.9473 113.005 20.3805C112.771 19.8137 112.656 19.2063 112.666 18.5946C112.659 17.9804 112.779 17.3712 113.018 16.8036C113.258 16.236 113.612 15.7219 114.059 15.2923C114.506 14.8626 115.038 14.5264 115.621 14.3038C116.204 14.0812 116.828 13.9769 117.453 13.9972C118.307 13.9848 119.148 14.1989 119.887 14.6169C120.569 15.0071 121.121 15.5835 121.476 16.2759L121.568 16.4758L124.012 15.1266L123.92 14.9567C123.371 13.8077 122.48 12.8493 121.364 12.2082C120.182 11.5382 118.838 11.193 117.473 11.2088C116.459 11.1825 115.449 11.3585 114.505 11.7261C113.562 12.0937 112.704 12.6453 111.984 13.3476C111.27 14.0268 110.707 14.8435 110.33 15.7465C109.954 16.6495 109.771 17.6191 109.795 18.5946C109.772 19.5759 109.955 20.5513 110.332 21.4606C110.708 22.3699 111.271 23.1939 111.984 23.8816C112.707 24.5728 113.563 25.1153 114.502 25.4775C115.441 25.8396 116.444 26.014 117.453 25.9904C118.824 26.005 120.174 25.6599 121.364 24.991C122.501 24.3567 123.441 23.4309 124.083 22.3125L124.185 22.1326L121.71 20.7534L121.557 20.9933Z" fill="#121B2B"/>
<path d="M132.974 11.2088C131.958 11.1817 130.946 11.3573 130.001 11.7249C129.056 12.0925 128.196 12.6446 127.474 13.3476C126.754 14.0234 126.185 14.8389 125.802 15.7421C125.42 16.6454 125.234 17.6168 125.254 18.5946C125.233 19.5741 125.419 20.5472 125.801 21.4522C126.183 22.3572 126.753 23.1743 127.474 23.8517C128.947 25.2254 130.901 25.9914 132.933 25.9914C134.965 25.9914 136.919 25.2254 138.392 23.8517C139.13 23.1819 139.718 22.3685 140.118 21.4634C140.518 20.5582 140.721 19.5812 140.714 18.5946C140.73 17.6148 140.538 16.6424 140.15 15.7392C139.763 14.836 139.188 14.0216 138.463 13.3476C137.743 12.6463 136.885 12.0953 135.941 11.7277C134.998 11.3602 133.989 11.1837 132.974 11.2088ZM136.406 21.9227C135.953 22.357 135.416 22.6983 134.826 22.9265C134.237 23.1547 133.607 23.2654 132.974 23.252C132.345 23.2642 131.721 23.1529 131.136 22.9246C130.552 22.6963 130.02 22.3557 129.572 21.9227C129.12 21.492 128.763 20.9739 128.525 20.4011C128.286 19.8283 128.171 19.2132 128.187 18.5946C128.172 17.9776 128.287 17.364 128.525 16.7929C128.763 16.2217 129.12 15.7053 129.572 15.2765C130.023 14.8507 130.557 14.5181 131.141 14.2983C131.725 14.0786 132.349 13.9762 132.974 13.9972C133.608 13.9816 134.238 14.0912 134.828 14.3195C135.417 14.5479 135.954 14.8903 136.406 15.3265C136.857 15.7564 137.213 16.273 137.451 16.8439C137.689 17.4148 137.805 18.0278 137.791 18.6446C137.798 19.2545 137.678 19.8593 137.44 20.4227C137.202 20.9861 136.851 21.4964 136.406 21.9227Z" fill="#121B2B"/>
<path d="M154.422 12.7879C153.878 12.2573 153.228 11.843 152.513 11.5712C151.798 11.2994 151.033 11.176 150.267 11.2088C149.437 11.1632 148.607 11.3095 147.844 11.6358C147.082 11.9621 146.408 12.4594 145.878 13.0878V11.5586H142.985V25.6306H145.878V18.1849C145.801 17.0299 146.176 15.8897 146.927 14.9967C147.302 14.6333 147.75 14.3506 148.243 14.1664C148.735 13.9823 149.262 13.9009 149.788 13.9273C150.233 13.9024 150.678 13.9667 151.097 14.1162C151.515 14.2657 151.898 14.4973 152.222 14.7968C152.525 15.1223 152.759 15.504 152.909 15.9193C153.059 16.3347 153.124 16.7753 153.098 17.2154V25.6706H155.991V17.0455C156.03 16.2692 155.912 15.493 155.643 14.762C155.373 14.031 154.958 13.36 154.422 12.7879Z" fill="#121B2B"/>
<defs>
<linearGradient id="paint0_linear_1318_56835" x1="8.95238" y1="8.95239" x2="25.995" y2="25.995" gradientUnits="userSpaceOnUse">
<stop offset="0.505208" stop-color="white"/>
<stop offset="0.974207" stop-color="#1C2028"/>
</linearGradient>
<linearGradient id="paint1_linear_1318_56835" x1="8.99999" y1="9" x2="19.5" y2="19.5" gradientUnits="userSpaceOnUse">
<stop offset="0.315476" stop-color="white"/>
<stop offset="0.974207" stop-opacity="0"/>
</linearGradient>
<linearGradient id="paint2_linear_1318_56835" x1="31.3554" y1="30.7336" x2="24.5169" y2="23.8944" gradientUnits="userSpaceOnUse">
<stop offset="0.0386897" stop-color="#1C2028"/>
<stop offset="1" stop-color="#F0F3F7"/>
</linearGradient>
<linearGradient id="paint3_linear_1318_56835" x1="33.677" y1="30.2711" x2="24.4327" y2="21.5135" gradientUnits="userSpaceOnUse">
<stop offset="0.15625" stop-color="#1C2028" stop-opacity="0"/>
<stop offset="0.515625" stop-color="#E8ECF0"/>
</linearGradient>
<clipPath id="clip0_1318_56835">
<rect width="36" height="36" fill="white"/>
</clipPath>
</defs>
</svg>
